<?xml version="1.0" encoding="utf-8"?>
<!-- Generator: Adobe Illustrator 19.0.0, SVG Export Plug-In . SVG Version: 6.00 Build 0)  -->
<svg version="1.1" id="Layer_1" xmlns="http://www.w3.org/2000/svg" xmlns:xlink="http://www.w3.org/1999/xlink" x="0px" y="0px"
	 viewBox="-274 383.3 62.3 27.5" style="enable-background:new -274 383.3 62.3 27.5;" xml:space="preserve">
<style type="text/css">
	.st0{fill:#FFFFFF;}
</style>
<g>
	<g>
		<g>
			<g>
				<g>
					<path class="st0" d="M-251.9,395c-0.1,0-0.2,0.1-0.3,0.1c0.2-0.2,0.3-0.4,0.3-0.7c-0.1,0-0.3,0.1-0.4,0.1
						c0.3-0.3,0.5-0.6,0.4-1c-0.1,0-0.2,0.1-0.4,0.2c0.3-0.4,0.3-0.8,0.2-1c-0.1,0.1-0.3,0.3-0.4,0.4c0.1-0.5,0.1-0.8-0.1-1
						c-0.2,0.4-0.4,0.7-0.7,1.1c0-0.3,0-0.7-0.2-1c0,0-0.1,0.5-0.2,0.6c0-0.5-0.2-0.7-0.4-0.9c0,0,0,0.5-0.1,0.8
						c-0.1-0.4-0.3-0.7-0.6-1c0,0.9-0.2,2.5-0.9,3.6c-0.2,0.5-0.3,1.5-1.3,2.1c-0.2-0.1-0.4-0.2-0.8-0.2c-0.1-0.5,0.5-0.9,1.1-1.3
						c0.6-0.4,0.8-0.7,0.8-1.2s-0.4-0.7-0.7-0.8c-0.5,0-0.9,0.5-1,0.6c-0.2,0.1-0.6,0.2-0.8,0.3c-0.2,0.1-0.4,0.1-0.6,0.3
						c0.1,0.1,0.3,0.1,0.4,0.1c0.2,0,0.7-0.1,1.3-0.2c0.2,0.1,0.5,0.3,0.2,0.5c-0.5,0.3-0.7,0.4-1.3,0.7c-1,0.5-0.7,1.9-0.4,2
						c0,0.5,0.4,1.3,0.7,1.6c0.1,0.6,0,1.4-0.2,1.8c-0.1-0.3-0.4-1.2-0.6-1.6c0.2-0.9-0.1-1.3-0.3-1.4c-0.2-0.2-0.5-0.1-0.7,0.2
						c0.3,0,0.4,0.3,0.4,0.7c0,0.5-0.1,0.8-0.5,0.8c0,0.4,0.5,0.5,0.7,0.3c0,0.1,0.2,0.6,0.4,1.1c0.1,0.3,0.2,0.5,0.3,0.7
						c0.1,0.1,0.6,0.2,0.6,0c0.1-0.2,0.1-0.4,0.3-0.7l0,0c0.1-0.2,0.2-0.5,0.4-0.8c0.1,0.2,0.3,0.6,0.4,0.8c0,0.1,0.1,0.2,0.1,0.2
						c0,0.4,0,1.7-0.1,2.6c-1.1-0.3-1.4,0.2-1.3,0.6c0.2-0.2,0.4-0.2,0.5-0.1c0,0.3,0,0.5,0.4,0.6c0.3-0.8,1.5-0.7,1.6-0.6
						c0-0.2,0.2-0.6-0.4-0.7c0-0.7,0.1-1.6,0.1-1.8c0-0.2,0-0.3,0-0.6c0-0.1-0.1-0.2-0.1-0.3l0,0c-0.1-0.3-0.2-0.7-0.2-1.1
						c0.1,0.1,0.3,0.2,0.5,0.1c0.1,0.6,0.3,0.4,0.4,0.6c0.1,0.1,0.1,0.2,0.1,0.3s0,0.2,0.1,0.3c0.4,0,0.7-0.1,1-0.3
						c0.1-0.1,0.1-0.1,0.2-0.2c-0.1-0.6-0.3-0.9-0.6-1.2c-0.1-0.5-0.3-0.9-0.6-1.3c0.4-0.1,0.8-0.4,1-0.7c0.2,0,0.4-0.2,0.4-0.5
						c0.1,0,0.2,0,0.3,0c0-0.1,0-0.2,0-0.3c0.1,0,0.3,0,0.4,0c0-0.1-0.1-0.2-0.1-0.3c0.1,0,0.3,0,0.5,0c-0.1-0.1-0.1-0.3-0.2-0.4
						c0.2,0,0.4-0.1,0.6-0.1c-0.1-0.1-0.1-0.1-0.3-0.3c0.5-0.2,0.8-0.5,0.8-0.7c-0.1,0-0.2,0-0.3,0
						C-252.1,395.5-251.9,395.3-251.9,395z"/>
				</g>
			</g>
			<g>
				<path class="st0" d="M-259.5,396.3h-3.4h-3.3h-0.2v0.1v2.4c0,0,0.1,0,0.1,0.1v-2.5h6.8v2.3c0,0,0,0.1,0.1,0.1v-2.4v-0.1H-259.5z
					"/>
				<path class="st0" d="M-262.9,405c-3-1.1-3.4-3.6-3.4-4.7l0,0v-0.1c0-0.2,0-0.4,0-0.5c0-0.2,0-0.3-0.1-0.4c0,0,0,0,0-0.1v1.2
					c0,1.3,0.5,2.4,1.4,3.4C-264.1,404.6-263.2,405-262.9,405L-262.9,405L-262.9,405c0.3,0,1.3-0.4,2.1-1.2c0.9-0.9,1.4-2,1.4-3.4
					v-0.2c0,0,0,0.1-0.1,0.1c0,0.6-0.1,1.5-0.5,2.2C-260.4,403.5-261.2,404.3-262.9,405z"/>
			</g>
			<path class="st0" d="M-264.1,394c-0.5,0-0.9,0.6-0.7,1.3c-0.1,0.1-0.3,0.1-0.4-0.1c0,0.2-0.5,0.5-0.9,0.5
				c0.2-0.2,0.3-0.7,0.7-0.9c0.4-0.3,0.6-0.4,0.7-0.8c-0.2,0-1,0.3-1.3,0c0.6-0.1,1.3-0.4,1.6-0.6l-0.1-0.2
				c-0.4,0.2-0.9,0.4-1.1,0.5c-0.1-0.7,0.6-0.7,0.6-0.5c0.3-0.4,0.1-0.8-0.1-0.9c0.2-0.6,0-0.9-0.2-1.2c0,0.6-0.7,0.7-0.8,1.2
				c0-0.4-0.1-1.4-0.1-1.9c0-0.9-1.2-1.2-1.4-1.2c-0.8,0-0.8-0.1-0.8-0.4c-0.4,0.4-0.3,0.8,0.1,1c0,0.3-0.5,0.5-0.7,0.5
				c0.6,0.6,1.3,0.2,1.7-0.1c0,0,0.1,0,0.1-0.1c0.1,0.3,0.1,0.7,0.1,0.9c-0.5,0-0.6,0.4-0.6,0.6c0.7-0.3,0.8,1.1,1,1.3
				c-0.2,0-0.5-0.4-1-0.5c-0.6,0-0.8,0.3-1,0.3c0,0.4,0.5,0.7,0.8,0.7c-0.2,0.4,0,0.7,0.3,0.8c0-0.4,0.5-0.5,1-0.2
				c0.7,0.4,1,0.4,1.5,0.3c-0.1,0.2-0.3,0.2-0.6,0.5c-0.4,0.3-0.4,0.8-0.8,1c0.5,0.3,1.3-0.1,1.4-0.3c0.2,0.1,0.5,0.1,0.6-0.1
				c-0.4-0.7,0.2-1.2,0.4-1.2C-264.1,394.2-264,394-264.1,394L-264.1,394z M-266.8,393.7c-0.2-0.1-0.6-0.2-0.9,0.1
				c-0.1-0.2,0.1-0.5,0.2-0.6c-0.6,0-0.9-0.2-1-0.3c0.2-0.1,0.7-0.3,1.2,0c0.3,0.2,0.5,0.3,0.8,0.4c0.1-0.1,0.1-0.1,0.1-0.1
				c-0.2-0.2-0.4-1.7-0.9-1.8c0-0.2,0.3-0.2,0.6-0.1c0-0.3-0.1-0.9-0.3-1.2c0.3-0.2,0.6,0,0.7,0.4c0.1,0.4,0,1.5,0.3,2.5v-0.2
				c-0.1-0.6,0.6-0.8,0.7-1.1c0.1,0.4,0,0.6-0.1,0.7c0.2,0,0.3,0.3,0.3,0.4c-0.6,0-0.9,0.5-0.8,1
				C-266.3,393.8-266.5,393.8-266.8,393.7L-266.8,393.7z M-268.3,389.4c0.4,0.2,0.6-0.2,1.4,0.3c-0.6,0.2-1,0.9-1.6,0.7
				c0.4-0.2,0.4-0.5,0.6-0.7C-268,389.7-268.3,389.6-268.3,389.4L-268.3,389.4z"/>
			<path class="st0" d="M-258.5,391.9c0-0.9,0-1.6,0-1.8h0.1c0.6,0.2,0.8,1,2,0.1c-0.7,0.1-0.7-0.5-1-0.5c0.5-0.3,0.5-0.9,0.5-0.9
				c-0.4,0.3-1.3,0.3-1.5,0.4c-0.2,0.1-0.5,0.3-0.7,0.4c-0.5,0.3-0.2,1.9-0.2,2.4c-0.3-0.9-0.9-0.7-1.2-1.2c-0.2,0.4,0,1.1,0.1,1.3
				c-0.3,0.3-0.2,0.8-0.2,0.9c0.3-0.2,0.7-0.2,0.9,0.2c-0.4,0.2-1,0.3-1.4-0.1l-0.2,0.2c0.3,0.4,1,0.5,1.6,0.2c0,0.1,0,0.2-0.1,0.3
				c-0.3,0.2-0.7,0.2-1.1,0.1c0.1,0.4,0.6,0.8,1,0.9c-0.2,0.1-0.4,0.2-0.5,0.2c0.1,0.2,0.1,0.6,0,0.8c-0.2-0.2-0.4-0.3-0.5-0.9
				s-0.5-1.2-0.9-1.3c0,0.2,0,0.1,0,0.3c0.9,0.7,0.4,1.9,1.3,2.3c0.5-0.5,0.5-0.6,0.5-1c0.3-0.1,0.6-0.4,0.7-0.6
				c-0.3,0.2-0.8-0.1-1-0.3c0.6,0,1.1-0.4,1.6-1c0.5-0.5,1.1-0.4,1.1,0c0.3,0,0.5-0.5,0.3-0.8c0.5-0.2,0.9-0.5,0.9-1.1
				C-257,391.8-257.9,391.2-258.5,391.9L-258.5,391.9z M-257.7,392.3c0.3,0.2,0.2,0.5,0.1,0.6c-0.2-0.4-0.9-0.3-1.6,0.5
				c0,0.1-0.1,0.1-0.2,0.2c0.1-0.9-0.7-1-0.9-0.9c0-0.3,0.2-0.5,0.3-0.5c-0.2-0.3-0.3-0.6-0.3-0.8c0.4,0.2,0.9,0.6,1,1.4l0.2-0.2
				c-0.1-1.3-0.1-1.3-0.1-2.2c0-0.1,0-0.4,0.4-0.4c0,0.3,0.1,1.2,0.1,2.5h0.1c0.1-0.3,0.6-0.8,1.1-0.7c0.4,0,0.5,0,0.7-0.1
				C-256.9,392.1-257.5,392.3-257.7,392.3L-257.7,392.3z M-258.7,389.8c0.3-0.2,0.4-0.3,0.6-0.3c0.2,0,0.6,0,0.8-0.1
				c-0.2,0.3-0.3,0.4-0.7,0.4c0.5,0,0.7,0.5,1,0.6C-257.9,390.6-258,389.8-258.7,389.8L-258.7,389.8z"/>
			<path class="st0" d="M-261.9,394.8c0,0-0.1,0-0.1,0.1c0,0-0.1,0-0.2,0v-0.3l0.1-0.1c0-0.1-0.1-0.1-0.1-0.1
				c-0.1,0-0.1,0.1-0.1,0.1c0,0.1,0,0.1,0.1,0.1v0.3h-0.1l-0.1-0.1c-0.1,0-0.1,0.1-0.1,0.1c0,0.1,0.1,0.1,0.1,0.1s0.1,0,0.1-0.1
				c0.1,0,0.1,0,0.2,0v0.4l-0.1,0.1c0,0.1,0.1,0.1,0.1,0.1c0.1,0,0.1-0.1,0.1-0.1c0-0.1,0-0.1-0.1-0.1v-0.4h0.1
				c0,0.1,0.1,0.1,0.1,0.1c0.1,0,0.1-0.1,0.1-0.1L-261.9,394.8L-261.9,394.8z"/>
			<path class="st0" d="M-263.1,394.7c-0.1,0-0.1,0-0.1,0.1h-0.1v-0.3l0.1-0.1c0-0.1-0.1-0.1-0.1-0.1c-0.1,0-0.1,0.1-0.1,0.1
				c0,0.1,0,0.1,0.1,0.1v0.3c-0.1,0-0.1,0-0.2,0l-0.1-0.1c-0.1,0-0.1,0.1-0.1,0.1l0.1,0.1c0.1,0,0.1,0,0.1-0.1h0.1v0.4l-0.1,0.1
				c0,0.1,0.1,0.1,0.1,0.1c0.1,0,0.1-0.1,0.1-0.1c0-0.1,0-0.1-0.1-0.1v-0.4c0,0,0.1,0,0.2,0l0.1,0.1c0.1,0,0.1-0.1,0.1-0.1
				S-263.1,394.7-263.1,394.7L-263.1,394.7z"/>
			<path class="st0" d="M-261.3,395.9c-0.1-0.6-0.3-2.1-0.3-2.6h-0.2c0,0.1,0,0.2,0,0.3c-0.3-0.1-0.7-0.1-1-0.1
				c-0.4,0-0.8,0.1-1,0.1c0-0.1,0-0.3,0-0.3h-0.2c0,0.5-0.2,2.1-0.3,2.6c-0.3,0.1-0.4,0.2-0.4,0.5c0,0,1.3,0,1.8,0s1.8,0,1.8,0
				C-261.1,396.1-261.2,396-261.3,395.9L-261.3,395.9z M-262.9,395.9c-0.2,0.4-0.6,0.4-0.9,0.2c-0.1-0.1-0.3-0.1-0.4-0.2
				c0.1-0.4,0.2-1.1,0.2-1.7c0.4-0.2,1-0.2,1.1,0.3c0.1-0.5,0.7-0.5,1.1-0.3c0.1,0.6,0.2,1.3,0.2,1.7c-0.1,0-0.3,0.1-0.4,0.2
				C-262.3,396.3-262.7,396.3-262.9,395.9L-262.9,395.9z"/>
			<path class="st0" d="M-255.6,405.8c-0.1,0-0.3,0.1-0.6,0.1h-0.3c-1.2,0-2.4-0.4-3.1-1.1c1-1-0.2-1.9-0.8-1
				c-0.2,0.3-0.4,0.5-0.5,0.7c-0.1,0.2,0,0.4,0.2,0.8c0.1,0.2,0.5,0.5,0.8,0.6h-5.9c0.3-0.3,0.6-0.5,0.8-0.7
				c0.3-0.3,0.3-0.5,0.2-0.8c-0.1-0.3-0.3-0.5-0.5-0.7c-0.6-0.9-1.8,0-0.8,1c-0.7,0.7-1.9,1.1-3.1,1.1h-0.3c-0.3,0-0.5,0-0.6-0.1
				c-0.2-0.1-0.3,0-0.2,0.5c0.1,0.3,0.2,0.7,0.2,1h14.5c0-0.3,0.1-0.8,0.2-1C-255.3,405.8-255.4,405.7-255.6,405.8L-255.6,405.8z
				 M-260.1,403.8c0.2-0.3,0.5-0.2,0.6,0c0.1,0.2-0.1,0.5-0.3,0.7C-260.2,404.1-260.2,403.9-260.1,403.8L-260.1,403.8z
				 M-260.6,404.9c-0.1-0.2-0.2-0.3-0.1-0.4c0.1-0.2,0.2-0.3,0.3-0.5c0.2,0.8,1.4,1.5,2.3,1.8h-1.4
				C-259.9,405.6-260.4,405.3-260.6,404.9L-260.6,404.9z M-266.2,403.8c0.1-0.2,0.4-0.3,0.6,0c0.1,0.1,0,0.4-0.3,0.8
				C-266.1,404.3-266.3,404-266.2,403.8L-266.2,403.8z M-265.3,404c0.1,0.2,0.2,0.4,0.3,0.5c0.1,0.2,0,0.3-0.1,0.4
				c-0.3,0.4-0.7,0.7-1.1,0.9h-1.4C-266.7,405.6-265.6,404.8-265.3,404L-265.3,404z M-255.9,407h-14c-0.1-0.4-0.1-0.7-0.2-1h14.4
				C-255.7,406.3-255.8,406.6-255.9,407L-255.9,407z"/>
			<path class="st0" d="M-268,406.7C-268,406.7-267.9,406.7-268,406.7v0.1l0,0l0,0l0,0c0.1,0,0.1,0,0.2,0l0,0l0,0l0,0
				c0,0,0,0-0.1-0.1c0-0.1-0.1-0.4-0.1-0.5l0,0l0,0l-0.2,0.5c0,0,0,0.1-0.1,0.1l0,0l0,0l0,0h0.1h0.1l0,0l0,0l0,0l0,0l0,0l0,0l0,0
				h0.1V406.7z M-268.2,406.7L-268.2,406.7l0.1-0.3l0,0l0,0l0.1,0.3l0,0H-268.2L-268.2,406.7z"/>
			<path class="st0" d="M-267.5,406.6c0,0.1,0,0.2,0.1,0.2c0.1,0.1,0.1,0.1,0.2,0.1c0.1,0,0.1,0,0.2-0.1c0-0.1,0-0.2,0-0.2v-0.1
				c0-0.1,0-0.1,0-0.2l0,0l0,0l0,0l0,0h-0.1h-0.1l0,0l0,0l0,0l0,0c0,0,0,0,0,0.2v0.1c0,0.1,0,0.2,0,0.2h-0.1h-0.1
				C-267.4,406.8-267.5,406.7-267.5,406.6v-0.1c0-0.1,0-0.1,0-0.2l0,0l0,0l0,0l0,0h-0.1h-0.1l0,0l0,0l0,0l0,0c0,0,0,0,0,0.2v0.1
				H-267.5z"/>
			<path class="st0" d="M-266.7,406.6c0,0.1,0,0.1,0,0.2l0,0l0,0l0,0l0,0h0.1c0,0,0.1,0,0.2,0c0.2,0,0.2-0.1,0.3-0.1
				c0,0,0.1-0.1,0.1-0.2s0-0.2-0.1-0.2c-0.1-0.1-0.2-0.1-0.3-0.1h-0.1h-0.1l0,0l0,0l0,0l0,0c0,0,0,0,0,0.2v0.2H-266.7z
				 M-266.6,406.5c0-0.1,0-0.1,0-0.2l0,0c0,0,0,0,0.1,0s0.2,0,0.2,0.1c0,0,0.1,0.1,0.1,0.2c0,0.1,0,0.2-0.1,0.2
				c-0.1,0-0.1,0.1-0.2,0.1s-0.1,0-0.1,0s0,0,0-0.1c0,0,0-0.1,0-0.2V406.5L-266.6,406.5z"/>
			<path class="st0" d="M-265.5,406.7L-265.5,406.7v0.1l0,0l0,0l0,0c0.1,0,0.1,0,0.2,0l0,0l0,0l0,0c0,0,0,0-0.1-0.1
				c-0.1-0.1-0.2-0.5-0.2-0.5l0,0l0,0l-0.2,0.5c0,0,0,0.1-0.1,0.1l0,0l0,0l0,0h0.1h0.1l0,0l0,0l0,0l0,0l0,0l0,0l0,0h0.2V406.7z
				 M-265.8,406.7L-265.8,406.7l0.1-0.3l0,0l0,0l0.1,0.3l0,0H-265.8L-265.8,406.7z"/>
			<path class="st0" d="M-264.7,406.3L-264.7,406.3C-264.7,406.2-264.7,406.2-264.7,406.3c0.1-0.1,0.1-0.1,0.1-0.1
				S-264.6,406.2-264.7,406.3C-264.7,406.2-264.7,406.2-264.7,406.3C-264.7,406.2-264.8,406.2-264.7,406.3
				C-264.8,406.2-264.8,406.2-264.7,406.3C-264.8,406.2-264.8,406.2-264.7,406.3C-264.8,406.2-264.8,406.2-264.7,406.3
				C-264.8,406.3-264.8,406.3-264.7,406.3C-264.8,406.3-264.8,406.3-264.7,406.3c-0.1,0-0.1,0.1-0.2,0.2c0-0.1-0.1-0.1-0.1-0.2l0,0
				l0,0l0,0l0,0l0,0h-0.1h-0.1l0,0l0,0l0,0c0,0,0,0,0.1,0.1l0.1,0.1l-0.2,0.2c0,0,0,0.1-0.1,0.1l0,0l0,0l0,0l0,0h0.1h0.1l0,0l0,0
				l0,0l0,0l0,0l0,0l0.1-0.2c0,0.1,0.1,0.1,0.1,0.2l0,0l0,0l0,0c0.1,0,0.1,0,0.1,0l0,0l0,0l0,0l0,0l0,0l-0.2-0.3L-264.7,406.3
				L-264.7,406.3z"/>
			<path class="st0" d="M-263.4,406.7L-263.4,406.7v0.1l0,0l0,0l0,0c0.1,0,0.1,0,0.2,0l0,0l0,0l0,0c0,0,0,0-0.1-0.1
				c-0.1-0.1-0.2-0.5-0.2-0.5l0,0l0,0l-0.2,0.5c0,0,0,0.1-0.1,0.1l0,0l0,0l0,0h0.1h0.1l0,0l0,0l0,0l0,0l0,0l0,0l0,0h0.2V406.7z
				 M-263.6,406.7L-263.6,406.7l0.1-0.3l0,0l0,0l0.1,0.3l0,0H-263.6L-263.6,406.7z"/>
			<path class="st0" d="M-262.9,406.6c0,0.1,0,0.1,0,0.2l0,0l0,0l0,0l0,0h0.1h0.1l0,0l0,0l0,0l0,0c0,0,0-0.1,0-0.2v-0.3h0.1
				c0.1,0,0.1,0,0.1,0l0,0l0,0l0,0v-0.1l0,0c0,0,0,0-0.1,0h-0.4h-0.1l0,0l0,0v0.1l0,0l0,0l0,0c0,0,0,0,0.1,0h0.1V406.6L-262.9,406.6
				z"/>
			<path class="st0" d="M-261.4,406.5L-261.4,406.5h0.1l0,0l0,0l0,0l0,0c0,0,0,0,0-0.1c0,0,0,0,0-0.1l0,0l0,0l0,0l0,0L-261.4,406.5
				L-261.4,406.5v-0.3l0,0h0.1c0,0,0,0,0.1,0l0,0l0,0l0,0v-0.1l0,0l0,0l0,0l0,0h-0.2h-0.1l0,0l0,0l0,0l0,0c0,0,0,0,0,0.2v0.1
				c0,0.1,0,0.1,0,0.2l0,0l0,0l0,0l0,0h0.1h0.1l0,0l0,0l0,0l0,0C-261.4,406.8-261.4,406.7-261.4,406.5L-261.4,406.5L-261.4,406.5z"
				/>
			<path class="st0" d="M-260.9,406.6c0,0.1,0,0.1,0,0.2l0,0l0,0l0,0l0,0h0.1h0.1l0,0l0,0l0,0l0,0c0,0,0-0.1,0-0.2v-0.1
				c0-0.1,0-0.1,0-0.2l0,0l0,0l0,0l0,0h-0.1h-0.1l0,0l0,0l0,0l0,0c0,0,0,0,0,0.2V406.6L-260.9,406.6z"/>
			<path class="st0" d="M-260.4,406.6c0,0.1,0,0.1,0,0.2l0,0l0,0l0,0l0,0h0.1c0,0,0.1,0,0.2,0c0.2,0,0.2-0.1,0.3-0.1
				c0,0,0.1-0.1,0.1-0.2s0-0.2-0.1-0.2c-0.1-0.1-0.2-0.1-0.3-0.1h-0.1h-0.1l0,0l0,0l0,0l0,0c0,0,0,0,0,0.2v0.2H-260.4z
				 M-260.3,406.5c0-0.1,0-0.1,0-0.2l0,0c0,0,0,0,0.1,0c0.1,0,0.2,0,0.2,0.1c0,0,0.1,0.1,0.1,0.2c0,0.1,0,0.2-0.1,0.2
				c0,0-0.1,0.1-0.2,0.1c-0.1,0-0.1,0-0.1,0s0,0,0-0.1c0,0,0-0.1,0-0.2V406.5L-260.3,406.5z"/>
			<path class="st0" d="M-259.5,406.6c0,0.1,0,0.1,0,0.2l0,0l0,0l0,0l0,0h0.1c0,0,0.1,0,0.2,0l0,0v-0.1l0,0l0,0v0.1h-0.1
				c-0.1,0-0.1,0-0.1-0.1v-0.1v-0.1l0,0h0.1l0,0l0,0l0,0l0,0c0,0,0,0,0-0.1v-0.1l0,0l0,0l0,0h-0.1l0,0v-0.2l0,0h0.1c0,0,0,0,0.1,0
				l0,0l0,0l0,0c0,0,0,0,0-0.1c0,0,0,0,0-0.1l0,0l0,0l0,0h-0.2h-0.1l0,0l0,0l0,0l0,0c0,0,0,0,0,0.2V406.6L-259.5,406.6z"/>
			<path class="st0" d="M-258.8,406.5c0-0.1,0-0.1,0-0.2l0,0l0,0l0,0l0,0h-0.1h-0.1l0,0l0,0l0,0l0,0c0,0,0,0,0,0.2v0.1
				c0,0.1,0,0.1,0,0.2l0,0l0,0l0,0l0,0h0.1c0.1,0,0.1,0,0.2,0c0,0,0,0,0.1,0v-0.1l0,0l0,0l0,0h-0.1c-0.1,0-0.1,0-0.1,0
				S-258.8,406.6-258.8,406.5L-258.8,406.5L-258.8,406.5z"/>
			<path class="st0" d="M-258.3,406.6c0,0.1,0,0.1,0,0.2l0,0l0,0l0,0l0,0h0.1h0.1l0,0l0,0l0,0l0,0c0,0,0-0.1,0-0.2v-0.1
				c0-0.1,0-0.1,0-0.2l0,0l0,0l0,0l0,0h-0.1h-0.1l0,0l0,0l0,0l0,0c0,0,0,0,0,0.2V406.6L-258.3,406.6z"/>
			<path class="st0" d="M-257.7,406.9h0.1c0.1,0,0.1-0.1,0.1-0.1c0-0.1,0-0.1-0.1-0.2l0,0c-0.1-0.1-0.1-0.1-0.1-0.1
				c0-0.1,0-0.1,0.1-0.1s0.1,0,0.1,0s0,0,0,0.1l0,0l0,0c0-0.1,0-0.1,0-0.1l0,0h-0.1c-0.1,0-0.2,0.1-0.2,0.2c0,0.1,0,0.1,0.1,0.2l0,0
				c0.1,0.1,0.1,0.1,0.1,0.1C-257.6,406.8-257.6,406.8-257.7,406.9l-0.1-0.1l0,0l0,0l0,0L-257.7,406.9L-257.7,406.9
				C-257.8,406.9-257.7,406.9-257.7,406.9L-257.7,406.9z"/>
			<path class="st0" d="M-260.2,389.9c0-0.1-0.2-0.2-0.3-0.2s-0.2,0.2-0.3,0.3c-0.1-0.6-0.1-0.8,0-1.1c0.3,0.4,0.6,0.5,0.8,0.5
				c-0.6-0.5-0.5-0.9-0.7-0.9c-0.1,0-0.2,0-0.2,0c-0.2,0-0.2,0.4-0.3,0.6c-0.1-0.3-0.3-0.5-0.5-0.8c-0.2-0.6-0.5-0.4-0.8-0.7
				c0.2,0.3,0,0.5,0.5,0.8c0.1,0.1,0.3,0.3,0.4,0.5c-0.1,0.1-0.1,0.2-0.2,0.2c-0.1,0.1-0.1,0.4-0.3,0.7c0.3-0.1,0.4-0.3,0.5-0.5
				c0.9,0.7,0.2,2.4,0,2.8c-0.2-0.1-0.5-0.2-0.7-0.3v-0.1l-0.2-0.7h0.1c0.1,0,0.1-0.1,0.1-0.1l0.6,0.2l0.3,0.1l-0.2-0.2l-0.3-0.4
				l0.3-0.4l0.2-0.2l-0.3,0.1l-0.6,0.2c0-0.1-0.1-0.2-0.3-0.2l0.3-0.7l0.1-0.3l-0.2,0.2l-0.4,0.3l-0.4-0.3l-0.2-0.2v0.3l0.2,0.6
				c-0.1,0-0.2,0.1-0.3,0.2l-0.5-0.1l-0.3-0.1l0.2,0.2l0.3,0.4l-0.4,0.4l-0.1,0.2l0.3-0.1l0.6-0.2c0,0.1,0,0.1,0.1,0.1h0.1l-0.2,0.7
				v0.1c-0.2,0-0.5,0.1-0.7,0.3c-0.6-1.2-0.5-2.4,0-2.7c0,0.3,0.2,0.6,0.3,0.7c-0.1-0.3,0-0.7-0.1-0.8s-0.2-0.1-0.4-0.1
				c0.2-0.3,0.3-0.5,0.6-0.8c0.4-0.2,0.5-0.6,0.6-0.8c-0.4,0.1-0.7,0.3-0.7,0.7c-0.3,0.1-0.4,0.3-0.6,0.6c0-0.3-0.2-0.4-0.4-0.4
				c-0.6,0.1-0.6,0.6-1.1,0.9c0.4,0.1,1-0.7,1.2-0.6c0,0.5-0.1,0.9-0.1,1.2c-0.1-0.1-0.2-0.2-0.3-0.2s-0.3,0-0.5,0.2
				c0,0.3,0,0.8-0.3,1.3c0.4-0.3,0.5-1,0.6-1.2c0.2,0.1,0.3,0.4,0.3,0.7c0,0.5,0.3,1.3,0.6,1.6c-0.1,0.1-0.1,0.3-0.1,0.4
				c-0.1,0.2-0.2,0.4-0.1,0.5s0.3,0.2,0.5,0.2h0.1c0.2-0.1,0.7-0.3,1.2-0.3s1,0.2,1.2,0.3h0.1c0.2,0.1,0.4,0,0.5-0.2
				c0.1-0.1,0-0.3-0.1-0.5c0-0.2,0-0.3-0.1-0.5l0,0c0.4-0.6,0.5-1.9,0.8-2.2c0,0.4,0.3,0.8,0.5,0.8
				C-260.2,390.7-260.2,390.1-260.2,389.9L-260.2,389.9z M-262.2,390.4l0.3-0.1l-0.2,0.2v0.1v0.1l0.2,0.2l-0.4-0.1
				C-262.3,390.7-262.3,390.6-262.2,390.4L-262.2,390.4z M-263.8,390.9l0.2-0.2v-0.1v-0.1l-0.2-0.2l0.3,0.1c0,0.1,0.1,0.2,0.1,0.3
				L-263.8,390.9L-263.8,390.9z M-262.5,390.8h-0.3v-0.5C-262.3,390.1-262.4,390.5-262.5,390.8L-262.5,390.8z M-262.6,391.6
				l-0.2-0.2h-0.1h-0.1l-0.2,0.2l0.2-0.5h0.3L-262.6,391.6L-262.6,391.6z M-262.9,389.8L-262.9,389.8h0.1l0.2-0.2l-0.1,0.4l0,0
				c0-0.1-0.1-0.1-0.1-0.1c-0.1,0-0.1,0-0.1,0.1l0,0l-0.1-0.4L-262.9,389.8L-262.9,389.8z M-263.2,390.8c-0.1-0.3-0.2-0.6,0.2-0.5
				v0.5H-263.2L-263.2,390.8z M-262.9,391.6l0.3,0.2c-0.1,0-0.2,0-0.3,0s-0.2,0-0.3,0L-262.9,391.6L-262.9,391.6z M-264.1,393.2
				L-264.1,393.2c-0.2,0.1-0.2,0-0.2,0s0-0.1,0.1-0.2l0,0l0.2,0.2C-264.1,393.2-264.1,393.2-264.1,393.2L-264.1,393.2z M-263.4,393
				l-0.2-0.2c0.2,0,0.4-0.1,0.6-0.1l0.1,0.3C-263.1,392.9-263.2,393-263.4,393L-263.4,393z M-262.1,393l-0.1-0.3
				c0.2,0,0.4,0.1,0.6,0.2l0.1,0.3C-261.7,393.2-261.9,393.1-262.1,393L-262.1,393z M-262.9,392.4c-0.4,0-0.9,0.1-1.3,0.3
				c0-0.1,0-0.2,0.1-0.2c0.2-0.3,0.8-0.4,1.2-0.4s1,0.1,1.2,0.4c0.1,0.1,0.1,0.1,0.1,0.2C-261.9,392.5-262.4,392.4-262.9,392.4
				L-262.9,392.4z"/>
			<g>
				<path class="st0" d="M-265.8,399.8c-0.2,0-0.3,0-0.3,0c0,0.5,0,0.9,0,1.3c0.2-0.3,0.3-0.6,0.3-0.8
					C-265.8,400.1-265.8,400-265.8,399.8z"/>
				<path class="st0" d="M-265.7,399.8c0,0.2,0.1,0.3,0.1,0.6c0,0.2-0.2,0.5-0.4,0.8c0,0,0,0.1-0.1,0.1c0.5,2.6,3.1,3.5,3.1,3.5v-5
					C-263,399.8-264.9,399.8-265.7,399.8z M-263.8,402.9c-0.1,0-0.3,0-0.5,0c-0.2,0-0.3,0-0.5,0c0-0.1,0-0.1,0-0.2
					c-0.1,0-0.2,0-0.3-0.1c0-0.1,0.1-0.3,0.2-0.5c0.2,0,0.3,0.1,0.5,0.1c0.2,0,0.4,0,0.5-0.1c0.1,0.2,0.1,0.3,0.2,0.5
					c-0.1,0-0.2,0.1-0.3,0.1C-263.9,402.8-263.8,402.9-263.8,402.9z M-264.9,401.8c0.1,0,0.5-0.1,0.6-0.1c0.1,0,0.5,0,0.6,0.1
					c0,0,0,0.1,0,0.2c-0.1,0-0.4,0.1-0.6,0.1c-0.2,0-0.4,0-0.6-0.1C-264.9,401.9-264.9,401.9-264.9,401.8z M-263.5,400.8
					c-0.1,0.3-0.3,0.7-0.3,0.8c-0.1,0-0.2,0-0.2,0c0.1-0.3,0.2-0.7,0.3-1C-263.6,400.4-263.3,400.5-263.5,400.8z M-264.3,400.3
					c0-0.2,0.5-0.2,0.4,0.2c-0.1,0.3-0.2,0.7-0.3,1.1h-0.1h-0.1c-0.1-0.3-0.2-0.7-0.3-1.1C-264.7,400.2-264.3,400.2-264.3,400.3z
					 M-264.9,400.6c0.1,0.3,0.2,0.7,0.3,1c-0.1,0-0.2,0-0.2,0c0-0.1-0.2-0.5-0.3-0.8C-265.2,400.5-264.9,400.4-264.9,400.6z"/>
				<path class="st0" d="M-260.2,400.3v-0.1h0.1c0.2,0,0.3-0.2,0.3-0.3c-0.6,0-3,0-3,0v2.4c0.2-0.1,0.4-0.3,0.6-0.3v-0.4v-0.1h0.2
					h0.1c0-0.6,0.2-1,0.4-1.3l0.1-0.1l0.1,0.1c0.3,0.3,0.4,0.7,0.4,1.3h0.1h0.1v0.1v0.5c0.3,0.1,0.4,0.3,0.6,0.5
					c0.2-0.4,0.4-1,0.4-1.6l0,0C-259.9,400.8-260.2,400.6-260.2,400.3z"/>
				<path class="st0" d="M-259.6,399.8L-259.6,399.8c-0.1,0.3-0.2,0.5-0.5,0.5c0,0.3,0.2,0.4,0.4,0.4l0,0
					C-259.6,400.4-259.6,400.1-259.6,399.8z"/>
				<path class="st0" d="M-261.4,402c-0.7,0-1,0.2-1.4,0.5v2.3c0,0,1.7-0.6,2.6-2.2C-260.4,402.3-260.7,402-261.4,402z
					 M-260.8,402.9l-0.2-0.2l-0.4,0.3l0.1,0.2c0,0,0.2-0.1,0.3,0.1c-0.1,0.1-0.3,0.2-0.4,0.3c-0.1-0.2,0-0.3,0-0.3l-0.1-0.2
					l-0.5,0.4l-0.1-0.1l0.5-0.4l-0.2-0.2l-0.1,0.1c-0.1-0.1-0.2-0.3-0.1-0.6c0.3-0.1,0.4,0.1,0.6,0.2c-0.1,0.1-0.1,0.1-0.1,0.1
					l0.2,0.2l0.4-0.3l-0.2-0.2c0.2,0,0.4,0,0.5,0.2C-260.8,402.6-260.8,402.7-260.8,402.9z"/>
				<path class="st0" d="M-266,398.6c0.2,0.1,0.2,0.3,0.2,0.7c0,0.1,0,0.2,0.1,0.3h6c0-0.1,0-0.1,0-0.2c0-0.3,0-0.5-0.1-0.6h-0.1
					l0,0h-0.2l0.1-0.2c0.1-0.2,0.3-0.3,0.5-0.3v-1.8h-6.6L-266,398.6C-266.1,398.5-266.1,398.5-266,398.6L-266,398.6z M-262.2,398.3
					v-0.1h-0.3c0.1-0.3,0.7-0.7,1-0.8c0-0.3,0.4-0.5,0.8-0.5c0.4,0,0.5,0.5,0.5,0.6c0,0.2-0.1,0.6-0.3,0.8c-0.4,0.2-0.7-0.1-0.7-0.3
					c0-0.3,0.2-0.4,0.5-0.4c0.3,0,0.3-0.1,0.1-0.2c-0.1,0-0.6-0.1-0.8,0.3c-0.1,0-0.2,0-0.3-0.1c-0.1,0.1-0.2,0.1-0.3,0.2
					c0.1,0.3,0.4,0.2,0.5,0.1v0.1c0,0.6,0.7,0.8,1.1,0.5c-0.1,0.2,0,0.5,0,0.6c0,0-1.4,0-1.6,0c0-0.2,0.2-0.4,0.4-0.5l-0.1-0.2
					c-0.2,0.1-0.3,0.1-0.5,0.2C-262.7,398.8-262.7,398.5-262.2,398.3z M-263.3,398.8c-0.1,0.1-0.4,0.2-0.5,0.1
					c-0.2-0.1-0.2-0.3-0.2-0.4s0.5-0.2,0.6-0.2C-263.3,398.4-263.3,398.8-263.3,398.8z M-265.5,397.8c0.4-0.2,0.5-0.3,0.7-0.6
					c-0.1-0.1-0.3-0.2-0.4-0.4c0.7,0.2,1,0.3,1.8,0c-0.1,0.2-0.3,0.3-0.5,0.4c0.2,0.3,0.4,0.6,0.4,0.9c-0.2,0-0.5,0-0.7,0.2
					c-0.3,0-0.7,0.1-0.9-0.6c-0.1,0.1-0.2,0.1-0.2,0.1c0.1,0.6,0.3,0.9,0.9,0.8c0,0.1,0.1,0.2,0.1,0.3c-0.2,0.1-0.8,0.5-1.3,0.1
					C-265.5,398.6-265.5,397.8-265.5,397.8z"/>
				<path class="st0" d="M-266.1,398.6v1h0.2c0-0.1-0.1-0.2-0.1-0.3C-265.9,398.8-266,398.8-266.1,398.6z"/>
				<path class="st0" d="M-259.6,399.6v-1.2c-0.1,0-0.3,0.1-0.4,0.3l0,0c0.3,0,0.4,0.4,0.4,0.7
					C-259.6,399.5-259.6,399.6-259.6,399.6L-259.6,399.6z"/>
				<path class="st0" d="M-264.5,398c0.1,0.1,0.2,0,0.4,0c0-0.1-0.1-0.1,0-0.2c0-0.2-0.1-0.2-0.2-0.2c-0.2,0-0.3,0-0.4,0
					C-264.7,397.7-264.7,397.9-264.5,398z"/>
			</g>
			<path class="st0" d="M-265.9,399.3c0.1-0.5,0-0.5-0.2-0.7c-0.1-0.1-0.3-0.1-0.5-0.3c-0.1-0.1-0.2-0.2-0.4-0.4
				c0-0.4,0.3-0.9,0.6-1.1v-0.7h0.1c-0.2-0.1-0.4,0-0.6,0.2c-0.2,0.1-0.6,0.4-0.8,0.5c-0.4-0.3-0.9-0.6-1.3-1c0,0,0.5,0,0.8-0.1
				c0,0,0.2-0.3,0.1-0.5c-0.1,0-0.2-0.1-0.3-0.2c-0.2-0.1-0.3-0.2-0.4-0.2c-0.2-0.2-0.3-0.4-0.7-0.5c0-0.2,0.1-0.1,0.2-0.3
				c0.3-0.1,0.4-0.3,0.5-0.4c0-0.2,0-0.5-0.2-0.1c-0.1,0.1-0.3,0.3-0.5,0.4c0-0.1,0-0.2,0-0.2c0.7-0.5,0.6-0.9,0.5-1.2
				c0-0.2-0.2-0.3-0.2-0.1c0,0.1,0.1,0.5-0.3,0.8c0-0.2-0.1-0.3-0.1-0.3c0.4-0.5,0.2-0.9,0.1-1.1c-0.1-0.1-0.3-0.2-0.2,0
				c0.1,0.2,0.2,0.6,0,0.8c-0.1-0.2-0.2-0.2-0.3-0.4c0-0.5,0-0.8-0.1-1c-0.1-0.2-0.2-0.3-0.2,0c0,0.3,0,0.7,0,0.7s-0.4-0.3-0.6-0.4
				c-0.1-0.2-0.3-0.2-0.1,0.1c0.2,0.2,0.7,0.5,0.6,0.7c0,0.1-0.4-0.2-0.6-0.3c-0.1-0.1-0.2,0,0,0.1c0.2,0.2,0.4,0.3,0.8,0.5
				c0.4,0.1,0.6,0.7,0.5,1.5h-0.1c-0.1-0.3-0.1-0.7-0.2-0.8c-0.1-0.2-0.3-0.2-0.2,0c0.1,0.2,0.1,0.5,0,0.8c-0.3,0-0.4-0.1-0.6-0.2
				c0-0.2,0.1-0.4,0.1-0.6c0-0.2-0.1-0.4-0.2-0.1c-0.1,0.2-0.1,0.4-0.2,0.6c-0.1,0-0.2-0.1-0.2-0.1s0-0.3,0-0.6c0-0.3-0.1-0.2-0.2,0
				c0,0.1-0.1,0.2-0.1,0.4c-0.1-0.1-0.2-0.3-0.2-0.4c0-0.3,0.1-0.5,0.1-0.7c0-0.1-0.1-0.4-0.2-0.1c-0.1,0.3-0.1,0.5-0.1,0.6
				c-0.1,0-0.2-0.5-0.3-0.8c0-0.1-0.1-0.3-0.2,0c0,0.4,0,0.7,0.1,0.9c-0.2,0-0.3-0.3-0.5-0.5c-0.1-0.2-0.2,0-0.1,0.1
				c0.2,0.6,0.7,0.8,0.9,0.8c0.4,0.5,1,0.7,1.6,1c-0.7,0-0.9,0.3-1.2,0.1c0,0.3,0.2,0.4,0.3,0.5c0.1,0,0.2,0.1,0.2,0.1
				c0,0.3,0.4,0.3,0.6,0.3c-0.1,0.7,0,1.6,0.6,2.2c0,0.3,0,0.8,0,1.1c-0.5,0.4-0.9,1.4-1.1,1.9c-0.1,0.4-0.3,0.7-0.6,0.8
				c0.2,0.3,0.6,0.1,0.8,0c0,0.2,0.1,0.4,0.1,0.5c-0.1,0.3-0.2,0.4-0.2,0.6c-0.2,0-0.3,0.1-0.3,0.2c-0.1,0.1,0,0.4,0.1,0.5
				c0.2,0.4,0,1.4,0,1.7c0.1,0,0.2,0,0.3-0.1c0,0,0.2,0.1,0.2,0.3c0,0.1-0.1,0.4,0.1,0.4c0.1,0,0.7,0,0.7-0.1
				c-0.1-0.1-0.1-0.2-0.2-0.3c0-0.1,0-0.3-0.1-0.4c-0.1-0.1-0.2-0.4-0.3-0.5c0-0.2,0-1,0-1.3c0.1-0.1,1.1-0.8,1.3-1.5
				c0.2,0.1,0.1,0.5,0.1,1.1c0,0.2,0.2,0.2,0.3,0.3c0.3,0,0.6,0.3,1,0.9c0.1-0.1,0.2-0.2,0.2-0.2c0.1,0.1,0.1,0.2,0.2,0.4
				c0,0.1,0.4,0.1,0.6,0.1c0.1,0,0.1,0,0.2-0.1c-0.3-0.6-0.5-0.9-0.9-1.2c-0.2-0.1-0.5-0.2-0.7-0.3c0.1-0.3,0.5-1.5,0.3-2
				c-0.1-0.2-0.4-0.3-0.7-0.2c0.3-0.4,0.9-1.1,1-1.3c0.1,0.1,0.4,0,0.7,0.1c0.1,0,0.4,0.4,0.4,0.5c0,0.2,0,0.5-0.1,1.1
				c0.1,0,0.1,0,0.2-0.1c0,0.2,0,0.3-0.2,0.5c0,0.2,0.1,0.6,0.2,0.6c0.1-0.4,0.6-1,0.6-1.3C-265.8,399.9-266,399.5-265.9,399.3
				L-265.9,399.3z"/>
		</g>
	</g>
	<g>
		<g>
			<path class="st0" d="M-245.2,398.8c0,0-0.1,0.1-0.5,0.1c-0.4,0-0.8-0.2-1-0.4c-0.2-0.2-0.6-0.4-1-0.5c-0.8,0-1.3-0.2-1.7-0.7
				c-0.4-0.5-0.6-1.2-0.6-1.9c0-1.1,0.4-2,1.2-2.4c0.3-0.2,0.7-0.3,1.1-0.3c1.4,0,2.2,1,2.2,2.6c0,1.1-0.4,2-1,2.4
				c0.1,0.1,0.3,0.2,0.5,0.3s0.4,0.2,0.6,0.2c0.2,0,0.5,0,0.5,0L-245.2,398.8z M-246.8,394.2c-0.1-0.3-0.4-0.7-0.9-0.7
				c-0.3,0-0.7,0.2-0.8,0.5c-0.2,0.3-0.3,0.8-0.3,1.4c0,0.9,0.1,1.4,0.5,1.7c0.2,0.1,0.4,0.2,0.6,0.2c0.7,0,1-0.5,1-1.9
				C-246.7,394.9-246.7,394.5-246.8,394.2z"/>
			<path class="st0" d="M-242.2,398.1c-0.1-0.1-0.2-0.2-0.3-0.4c-0.2,0.2-0.6,0.4-1,0.4c-0.5,0-1-0.3-1.1-0.6
				c-0.1-0.2-0.1-0.4-0.1-0.8v-2.4l1-0.2v2.4c0,0.3,0,0.5,0.1,0.6c0.1,0.1,0.2,0.2,0.3,0.2c0.2,0,0.5-0.2,0.6-0.4v-2.6l1-0.2v2.9
				c0,0.3,0.1,0.5,0.2,0.7L-242.2,398.1z"/>
			<path class="st0" d="M-239.8,396.4L-239.8,396.4c0,0.6,0.3,1,0.8,1c0.3,0,0.7-0.1,1-0.4l0.4,0.6c-0.4,0.4-0.9,0.5-1.4,0.5
				c-1.1,0-1.8-0.8-1.8-2c0-0.7,0.1-1.1,0.5-1.5c0.3-0.3,0.7-0.5,1.2-0.5c0.4,0,0.9,0.1,1.1,0.4c0.3,0.4,0.5,0.9,0.5,1.7v0.2H-239.8
				z M-238.7,395.6c0-0.3,0-0.4-0.1-0.6c-0.1-0.1-0.2-0.2-0.4-0.2c-0.4,0-0.6,0.3-0.6,0.8l0,0H-238.7L-238.7,395.6z"/>
			<path class="st0" d="M-236.1,396.4L-236.1,396.4c0,0.6,0.3,1,0.8,1c0.3,0,0.7-0.1,1-0.4l0.4,0.6c-0.4,0.4-0.9,0.5-1.4,0.5
				c-1.1,0-1.8-0.8-1.8-2c0-0.7,0.1-1.1,0.5-1.5c0.3-0.3,0.7-0.5,1.2-0.5c0.4,0,0.9,0.1,1.1,0.4c0.3,0.3,0.4,0.9,0.4,1.7v0.2H-236.1
				z M-234.9,395.6c0-0.3,0-0.4-0.1-0.6c-0.1-0.1-0.2-0.2-0.4-0.2c-0.4,0-0.6,0.3-0.6,0.8l0,0H-234.9L-234.9,395.6z"/>
			<path class="st0" d="M-231.2,398v-2.5c0-0.4-0.1-0.6-0.3-0.6s-0.5,0.1-0.7,0.3v2.7h-1v-2.7c0-0.3,0-0.6-0.1-0.9l0.9-0.3
				c0.1,0.2,0.1,0.3,0.1,0.5c0.2-0.1,0.3-0.1,0.5-0.2s0.5-0.2,0.7-0.2c0.4,0,0.8,0.2,0.9,0.5c0.1,0.1,0.1,0.3,0.1,0.5v2.8h-1.1V398z
				"/>
			<path class="st0" d="M-228,398.1c-0.5,0-1-0.1-1.5-0.4l0.4-0.7c0.3,0.2,0.8,0.4,1.3,0.4c0.3,0,0.5-0.2,0.5-0.4
				c0-0.3-0.2-0.4-0.6-0.5l-0.6-0.1c-0.3,0-0.6-0.2-0.7-0.4c-0.1-0.2-0.2-0.4-0.2-0.7c0-0.7,0.6-1.2,1.5-1.2c0.6,0,1,0.2,1.4,0.4
				l-0.3,0.7c-0.4-0.2-0.7-0.3-0.9-0.3c-0.3,0-0.5,0.1-0.5,0.4c0,0.2,0.1,0.3,0.5,0.4l0.5,0.1c0.5,0.1,0.6,0.3,0.8,0.4
				c0.1,0.2,0.2,0.4,0.2,0.6C-226.4,397.6-227,398.1-228,398.1z"/>
			<path class="st0" d="M-224.7,398.1c-0.4,0-0.8-0.2-0.9-0.5c-0.1-0.2-0.1-0.3-0.1-0.9v-2.9c0-0.5,0-0.8-0.1-1.1l1-0.2
				c0,0.2,0.1,0.5,0.1,1v3c0,0.7,0,0.7,0.1,0.8c0,0.1,0.1,0.1,0.2,0.1h0.1l0.2,0.6C-224.3,398-224.5,398.1-224.7,398.1z"/>
			<path class="st0" d="M-221.1,398.2c-0.2-0.1-0.4-0.3-0.5-0.5c-0.1,0.1-0.2,0.1-0.2,0.2c-0.2,0.1-0.5,0.2-0.8,0.2
				c-0.8,0-1.3-0.4-1.3-1.2c0-0.9,0.6-1.3,1.8-1.3c0.1,0,0.1,0,0.2,0v-0.1c0-0.4-0.1-0.6-0.4-0.6s-0.7,0.2-1.1,0.4l-0.4-0.7
				c0.2-0.1,0.3-0.2,0.6-0.3c0.4-0.2,0.7-0.2,1-0.2c0.6,0,1.1,0.2,1.2,0.7c0.1,0.2,0.1,0.3,0.1,0.7v1.3c0,0.4,0,0.6,0.4,0.8
				L-221.1,398.2z M-221.9,396.3c-0.7,0-0.9,0.1-0.9,0.6c0,0.3,0.2,0.5,0.4,0.5c0.2,0,0.4-0.1,0.5-0.3V396.3L-221.9,396.3z"/>
			<path class="st0" d="M-217.8,398v-2.5c0-0.4-0.1-0.6-0.3-0.6c-0.2,0-0.5,0.1-0.7,0.3v2.7h-1v-2.7c0-0.3,0-0.6-0.1-0.9l0.9-0.3
				c0,0.2,0.1,0.4,0.1,0.5c0.1-0.1,0.2-0.1,0.4-0.2s0.5-0.2,0.7-0.2c0.4,0,0.8,0.2,0.9,0.5c0.1,0.1,0.1,0.3,0.1,0.5v2.8h-1V398z"/>
			<path class="st0" d="M-213.5,398c0-0.1,0-0.1-0.1-0.2c-0.2,0.2-0.5,0.3-0.9,0.3c-1,0-1.6-0.8-1.6-1.9c0-1.2,0.7-2,1.6-2
				c0.3,0,0.5,0.1,0.7,0.2c0-0.1,0-0.3,0-0.6v-1.3l1,0.2v4c0,0.9,0.1,1.2,0.1,1.4h-0.8V398z M-213.7,395.2c-0.2-0.2-0.4-0.2-0.5-0.2
				c-0.4,0-0.6,0.4-0.6,1.2c0,0.8,0.2,1.1,0.7,1.1c0.2,0,0.4-0.1,0.5-0.2L-213.7,395.2L-213.7,395.2z"/>
			<path class="st0" d="M-247.6,405.2c-0.6,0-1.2-0.2-1.6-0.6c-0.4-0.5-0.6-1.1-0.6-2c0-1,0.3-1.7,0.8-2.1c0.4-0.3,0.8-0.5,1.3-0.5
				s1,0.2,1.4,0.5l-0.3,0.4c-0.4-0.3-0.7-0.4-1.1-0.4c-0.6,0-1.1,0.3-1.3,0.9c-0.1,0.4-0.2,0.8-0.2,1.3c0,0.7,0.1,1.2,0.4,1.5
				c0.2,0.3,0.8,0.5,1.2,0.5c0.3,0,0.6-0.1,0.8-0.2v-1.6h-1l-0.1-0.5h1.7v2.4C-246.5,405.1-247.1,405.2-247.6,405.2z"/>
			<path class="st0" d="M-243.6,405.3c-1,0-1.6-0.8-1.6-2c0-1.2,0.6-1.9,1.6-1.9c0.6,0,1,0.3,1.3,0.6c0.2,0.3,0.3,0.8,0.3,1.4
				C-242,404.6-242.6,405.3-243.6,405.3z M-242.8,402.3c-0.2-0.3-0.5-0.5-0.8-0.5c-0.3,0-0.6,0.2-0.8,0.4c-0.1,0.2-0.2,0.5-0.2,1
				s0.1,1,0.2,1.2c0.1,0.2,0.4,0.4,0.8,0.4c0.4,0,0.7-0.2,0.8-0.6c0.1-0.2,0.1-0.4,0.1-0.8C-242.6,402.9-242.7,402.5-242.8,402.3z"
				/>
			<path class="st0" d="M-239.7,405.2h-0.6l-1.3-3.7l0.6-0.1l0.9,2.5c0.1,0.3,0.2,0.6,0.2,0.6l0,0c0,0,0.1-0.3,0.2-0.6l0.8-2.5h0.6
				L-239.7,405.2z"/>
			<path class="st0" d="M-237.1,403.4L-237.1,403.4c0,0.4,0,0.7,0.2,0.9c0.2,0.3,0.5,0.5,0.9,0.5c0.4,0,0.6-0.1,0.9-0.3l0.2,0.4
				c-0.3,0.3-0.8,0.5-1.2,0.5c-1,0-1.6-0.7-1.6-2c0-0.6,0.1-1,0.4-1.4c0.3-0.3,0.7-0.5,1.1-0.5c0.4,0,0.8,0.1,1,0.4
				c0.3,0.3,0.4,0.7,0.4,1.6v-0.1H-237.1z M-235.6,402.1c-0.1-0.2-0.4-0.3-0.7-0.3c-0.5,0-0.8,0.4-0.9,1.2h1.7
				C-235.4,402.6-235.5,402.3-235.6,402.1z"/>
			<path class="st0" d="M-232.2,402c0,0-0.1,0-0.2,0c-0.2,0-0.4,0.1-0.6,0.3c-0.2,0.2-0.2,0.3-0.2,0.6v2.3h-0.6v-2.9
				c0-0.5-0.1-0.8-0.1-0.8l0.6-0.2c0,0,0.1,0.3,0.1,0.6c0.3-0.4,0.7-0.6,1-0.6c0.1,0,0.2,0,0.2,0L-232.2,402z"/>
			<path class="st0" d="M-229.3,405.2v-2.5c0-0.4,0-0.5-0.1-0.6c-0.1-0.1-0.2-0.2-0.4-0.2c-0.3,0-0.8,0.2-1,0.5v2.8h-0.6v-2.9
				c0-0.5-0.1-0.8-0.1-0.8l0.5-0.1c0,0,0.1,0.3,0.1,0.6c0.4-0.4,0.8-0.6,1.2-0.6c0.4,0,0.8,0.2,0.9,0.5c0.1,0.1,0.1,0.3,0.1,0.4v2.8
				L-229.3,405.2L-229.3,405.2z"/>
			<path class="st0" d="M-223.5,405.2v-2.8c0-0.4-0.2-0.5-0.5-0.5s-0.6,0.2-1,0.6v2.7h-0.6v-2.6c0-0.2,0-0.4-0.1-0.5
				c-0.1-0.1-0.2-0.1-0.4-0.1c-0.3,0-0.6,0.1-0.9,0.5v2.8h-0.6v-2.9c0-0.5-0.1-0.8-0.1-0.8l0.6-0.1c0,0,0.1,0.3,0.1,0.6
				c0.2-0.3,0.7-0.6,1.1-0.6c0.4,0,0.7,0.2,0.9,0.6c0.4-0.4,0.8-0.6,1.2-0.6c0.6,0,0.9,0.4,0.9,1v2.8h-0.6V405.2z"/>
			<path class="st0" d="M-221.3,403.4L-221.3,403.4c0,0.4,0,0.7,0.2,0.9c0.2,0.3,0.5,0.5,0.9,0.5s0.6-0.1,0.9-0.3l0.2,0.4
				c-0.3,0.3-0.8,0.5-1.2,0.5c-1,0-1.6-0.7-1.6-2c0-0.6,0.1-1,0.4-1.4c0.3-0.3,0.7-0.5,1.1-0.5s0.8,0.1,1,0.4
				c0.3,0.3,0.4,0.7,0.4,1.6v-0.1H-221.3z M-219.8,402.1c-0.1-0.2-0.4-0.3-0.7-0.3c-0.5,0-0.8,0.4-0.9,1.2h1.7
				C-219.6,402.6-219.7,402.3-219.8,402.1z"/>
			<path class="st0" d="M-215.8,405.2v-2.5c0-0.4,0-0.5-0.1-0.6c-0.1-0.1-0.2-0.2-0.4-0.2c-0.3,0-0.8,0.2-1,0.5v2.8h-0.7v-2.9
				c0-0.5-0.1-0.8-0.1-0.8l0.6-0.2c0,0,0.1,0.3,0.1,0.6c0.4-0.4,0.8-0.6,1.2-0.6c0.4,0,0.8,0.2,0.9,0.5c0.1,0.1,0.1,0.3,0.1,0.4v2.8
				h-0.6V405.2z"/>
			<path class="st0" d="M-212.8,401.9h-0.8v2.4c0,0.4,0.1,0.5,0.5,0.5c0.2,0,0.3,0,0.4-0.1l0.1,0.4c-0.2,0.1-0.4,0.1-0.7,0.1
				c-0.2,0-0.3,0-0.5-0.1c-0.3-0.1-0.4-0.4-0.4-0.7v-2.5h-0.5v-0.4h0.5c0-0.4,0.1-0.9,0.1-0.9l0.6-0.1c0,0-0.1,0.6-0.1,1.1h0.9
				L-212.8,401.9z"/>
		</g>
	</g>
</g>
</svg>
