<?xml version="1.0" encoding="utf-8"?>
<!-- Generator: Adobe Illustrator 19.0.0, SVG Export Plug-In . SVG Version: 6.00 Build 0)  -->
<svg version="1.1" id="Layer_1" xmlns="http://www.w3.org/2000/svg" xmlns:xlink="http://www.w3.org/1999/xlink" x="0px" y="0px"
	 viewBox="-296.3 392.8 239.5 92.3" style="enable-background:new -296.3 392.8 239.5 92.3;" xml:space="preserve">
<style type="text/css">
	.st0{fill:#FFFFFF;}
</style>
<title>logo-white</title>
<path class="st0" d="M-222.1,417.2v-7.4c0-0.6-0.4-0.8-2-0.8v-0.7h5.6v0.7c-1.7,0.1-1.8,0.2-1.8,0.8v7c0,2.3,1.4,3.2,3.5,3.2
	c1,0,1.8-0.4,2.4-0.9c0.7-0.7,0.9-1.3,0.9-2.7v-5.1c0-1.7-0.4-2-2.2-2.3v-0.7h4.9v0.7c-1.7,0.3-1.8,0.6-1.8,2.3v5.8
	c0,2-1.7,3.9-4.7,3.9C-220.3,421-222.1,419.5-222.1,417.2 M-206.7,410.5L-206.7,410.5l-0.1,7.1c0,1.7,0.2,2.2,2,2.4v0.7h-4.8v-0.7
	c1.7-0.3,2-0.8,2-2.5v-7.2c0-0.7-0.4-1.2-2-1.3v-0.7h3.6l6.8,9.4h0.1v-6.5c0-1.7-0.4-2-2.2-2.3v-0.7h4.9v0.7
	c-1.7,0.3-1.8,0.6-1.8,2.3v9.7h-0.8L-206.7,410.5z M-195,420c1.6-0.1,2-0.2,2-0.8v-9.3c0-0.6-0.4-0.8-2-0.8v-0.7h5.8v0.7
	c-1.6,0.1-2,0.2-2,0.8v9.3c0,0.6,0.4,0.8,2,0.8v0.7h-5.8L-195,420L-195,420z M-185.9,410.3c-0.3-0.8-0.6-1.1-2-1.3v-0.7h5.5v0.7
	c-1.6,0.1-1.9,0.4-1.7,1.2l2.9,8.4h0.1l2.7-7.2c0.7-1.8,0.5-2.1-1.3-2.4v-0.7h4.5v0.7c-1.2,0.2-1.6,0.8-2.2,2.4l-3.8,9.6h-0.9
	L-185.9,410.3L-185.9,410.3z M-174.1,420c1.6-0.1,2-0.2,2-0.8v-9.3c0-0.6-0.4-0.8-2-0.8v-0.7h10.1l0.1,3.6l-0.7,0
	c-0.7-2.1-1-2.8-3.1-2.8h-2.6v4.7h1c1.4,0,1.9-0.1,2.3-2.1h0.6v5h-0.6c-0.5-2-1-2.1-2.3-2.1h-1v5.2h2.6c2.5,0,3.1-1,3.7-3.2l0.7,0
	l-0.1,4h-10.7C-174.1,420.7-174.1,420-174.1,420z M-158.3,419.2c0,0.6,0.3,0.8,2,0.8v0.7h-5.8V420c1.6-0.1,2-0.2,2-0.8v-9.3
	c0-0.6-0.4-0.8-2-0.8v-0.7h5.2c3.8,0,4.9,1.4,4.9,3c0,1.5-0.9,2.6-3.2,3.1v0.1c2.3,0.2,2.6,1.1,2.8,2.4l0.3,1.7
	c0.2,1.1,0.6,1.4,1.9,1.5v0.7c-0.1,0-0.5,0-0.6,0c-2.7,0-3.1-0.6-3.2-2.3l-0.1-1.4c-0.1-1.7-0.9-2.2-2.8-2.2h-1.3V419.2
	L-158.3,419.2z M-156.9,414.1c2.4,0,3-1.1,3-2.7c0-1.5-0.8-2.3-3.1-2.3h-1.3v5H-156.9z M-149.1,417.1h0.7c1,2.2,2.2,3.1,3.8,3.1
	c1.8,0,2.5-1.2,2.5-2.3c0-1.4-0.9-1.9-3.2-2.7c-1.7-0.6-3.6-1.1-3.6-3.4c0-2.3,1.9-3.8,4.2-3.8c1.1,0,1.7,0.2,2.4,0.5l0.6-0.5h0.5
	v3.6h-0.7c-0.6-1.7-1.7-2.7-3.1-2.7c-1.2,0-2.2,0.8-2.2,2.2c0,1.3,1,1.8,3,2.4c1.7,0.6,3.5,1.2,3.5,3.5c0,1.9-1.1,4.1-4.2,4.1
	c-0.9,0-1.9-0.2-2.7-0.5l-1,0.6h-0.5L-149.1,417.1L-149.1,417.1z M-138.9,420c1.6-0.1,2-0.2,2-0.8v-9.3c0-0.6-0.4-0.8-2-0.8v-0.7
	h5.8v0.7c-1.6,0.1-2,0.2-2,0.8v9.3c0,0.6,0.4,0.8,2,0.8v0.7h-5.8V420z M-129.2,420c1.7-0.1,2.1-0.2,2.1-0.8v-10.1h-0.9
	c-1.8,0-2.2,0.9-2.9,3.2l-0.6,0l0.1-3.9h10.5l0.1,3.9l-0.6,0c-0.6-2.1-1.1-3.2-2.9-3.2h-0.9v10.1c0,0.6,0.4,0.8,2.1,0.8v0.7h-6V420
	L-129.2,420z M-111.1,411.1c0.8-1.4,0.8-1.8-0.8-2.1v-0.7h4.3v0.7c-1.1,0.2-1.5,0.4-2.4,1.9l-2.8,4.5v3.8c0,0.6,0.4,0.8,1.9,0.8v0.7
	h-5.7V420c1.6-0.1,1.9-0.2,1.9-0.8v-3.6l-3.1-5.4c-0.4-0.7-0.7-0.9-1.9-1.1v-0.7h5.4v0.7c-1.7,0.1-1.8,0.5-1.4,1.2l2.4,4.3
	L-111.1,411.1L-111.1,411.1z M-223.6,432.1c0-4,2.6-6.5,5.9-6.5c3.4,0,5.9,2.5,5.9,6.4c0,4-2.7,6.5-5.9,6.5
	C-221,438.5-223.6,436.1-223.6,432.1 M-213.8,432.1c0-3.9-1.7-5.7-3.9-5.7c-2.3,0-3.8,1.8-3.8,5.7c0,3.9,1.7,5.7,3.9,5.7
	C-215.3,437.7-213.8,436-213.8,432.1 M-210.8,437.5c1.6-0.1,2-0.2,2-0.8v-9.3c0-0.6-0.4-0.8-2-0.8v-0.7h10l0.1,3.7l-0.6,0
	c-0.6-2.1-1.2-2.9-3.3-2.9h-2.4v4.9h1.2c1.4,0,1.7-0.2,2.2-2.1h0.6v5h-0.6c-0.5-2-0.8-2.1-2.2-2.1h-1.2v4.3c0,0.6,0.4,0.8,2.1,0.8
	v0.7h-5.9C-210.8,438.2-210.8,437.5-210.8,437.5z M-186.7,428c-0.3-1-0.6-1.3-1.9-1.5v-0.7h5.1v0.7c-1.4,0.1-1.7,0.5-1.5,1.1
	l2.5,7.9h0.1l2.2-6.7c0.6-1.9,0.5-2.1-1.3-2.4v-0.7h4.5v0.7c-1.3,0.3-1.8,0.8-2.3,2.4l-3.2,9.6h-0.9l-2.7-8.3l-3.1,8.3h-0.9
	l-3.3-10.7c-0.2-0.8-0.6-1.1-2-1.3v-0.7h5.2v0.7c-1.4,0.1-1.5,0.5-1.3,1.2l2.3,7.9h0.1l2.6-6.7C-186.4,428.9-186.7,428-186.7,428z
	 M-176.7,432.1c0-4,2.7-6.5,5.9-6.5c3.4,0,5.9,2.5,5.9,6.4c0,4-2.6,6.5-5.9,6.5C-174.1,438.5-176.7,436.1-176.7,432.1 M-166.9,432.1
	c0-3.9-1.7-5.7-3.9-5.7c-2.3,0-3.8,1.8-3.8,5.7c0,3.9,1.7,5.7,3.9,5.7C-168.4,437.7-166.9,436-166.9,432.1 M-163.7,437.5
	c1.6-0.1,2-0.2,2-0.8v-9.3c0-0.6-0.4-0.8-2-0.8v-0.7h5.8v0.7c-1.6,0.1-2,0.2-2,0.8v10h2c2.5,0,3.1-0.9,3.8-3.4l0.7,0l-0.1,4.2h-10.1
	C-163.7,438.2-163.7,437.5-163.7,437.5z M-152,437.5c1.6-0.1,2-0.2,2-0.8v-9.3c0-0.6-0.4-0.8-2-0.8v-0.7h5.8v0.7
	c-1.6,0.1-2,0.2-2,0.8v10h2c2.5,0,3.1-0.9,3.8-3.4l0.7,0l-0.1,4.2H-152L-152,437.5L-152,437.5z M-140.4,432.1c0-4,2.7-6.5,5.9-6.5
	c3.4,0,5.9,2.5,5.9,6.4c0,4-2.7,6.5-5.9,6.5C-137.8,438.5-140.4,436.1-140.4,432.1 M-130.6,432.1c0-3.9-1.7-5.7-3.9-5.7
	c-2.3,0-3.8,1.8-3.8,5.7c0,3.9,1.7,5.7,3.9,5.7C-132.1,437.7-130.6,436-130.6,432.1 M-124.8,428.1L-124.8,428.1l-0.1,7.1
	c0,1.7,0.2,2.2,2,2.4v0.7h-4.8v-0.7c1.7-0.3,2-0.8,2-2.5v-7.2c0-0.7-0.4-1.2-2-1.3v-0.7h3.6l6.8,9.4h0.1v-6.5c0-1.7-0.4-2-2.2-2.3
	v-0.7h4.9v0.7c-1.7,0.3-1.8,0.6-1.8,2.3v9.7h-0.8C-117.2,438.5-124.8,428.1-124.8,428.1z M-114,432.1c0-3.9,3-6.5,6.4-6.5
	c1.1,0,2.3,0.3,3,0.6l0.5-0.6h0.7v3.7h-0.6c-0.8-2-2-2.9-3.7-2.9c-2.1,0-4.2,1.8-4.2,5.7c0,3.8,2.3,5.7,4.3,5.7c1.1,0,2-0.2,2.5-0.6
	v-3.3c0-0.6-0.4-0.8-2-0.8v-0.7h5.1v0.7c-1.1,0.1-1.3,0.2-1.3,0.8v3.7c-1.1,0.6-2.9,1-4.2,1C-110.9,438.5-114,436.4-114,432.1
	 M-100.4,432.1c0-4,2.7-6.5,5.9-6.5c3.4,0,5.9,2.5,5.9,6.4c0,4-2.6,6.5-5.9,6.5C-97.9,438.5-100.4,436.1-100.4,432.1 M-90.6,432.1
	c0-3.9-1.7-5.7-3.9-5.7c-2.3,0-3.8,1.8-3.8,5.7c0,3.9,1.7,5.7,3.9,5.7C-92.1,437.7-90.6,436-90.6,432.1 M-84.8,428.1L-84.8,428.1
	l-0.1,7.1c0,1.7,0.2,2.2,2,2.4v0.7h-4.8v-0.7c1.7-0.3,2-0.8,2-2.5v-7.2c0-0.7-0.4-1.2-2-1.3v-0.7h3.6l6.8,9.4h0.1v-6.5
	c0-1.7-0.4-2-2.2-2.3v-0.7h4.9v0.7c-1.7,0.3-1.8,0.6-1.8,2.3v9.7h-0.8L-84.8,428.1L-84.8,428.1z M-73.6,432.1c0-3.9,3-6.5,6.4-6.5
	c1.1,0,2.3,0.3,3,0.6l0.5-0.6h0.7v3.7h-0.6c-0.8-2-2-2.9-3.7-2.9c-2.1,0-4.2,1.8-4.2,5.7c0,3.8,2.3,5.7,4.3,5.7c1.1,0,2-0.2,2.5-0.6
	v-3.3c0-0.6-0.4-0.8-2-0.8v-0.7h5.1v0.7c-1.1,0.1-1.3,0.2-1.3,0.8v3.7c-1.1,0.6-2.9,1-4.2,1C-70.5,438.5-73.6,436.4-73.6,432.1
	 M-216.7,451.2h-4.2l-0.7,1.8c-0.6,1.6-0.6,1.9,1,2.1v0.7h-4.1v-0.7c1.3-0.3,1.6-1,2.3-2.5l3.8-9.4h1l3.7,10.4
	c0.4,1,0.7,1.3,2.1,1.5v0.7h-5.6v-0.7c1.6-0.1,1.9-0.5,1.6-1.4L-216.7,451.2L-216.7,451.2z M-217,450.4l-1.7-4.8h-0.1l-1.9,4.8
	C-220.6,450.4-217,450.4-217,450.4z M-211,452.3v-7.4c0-0.6-0.4-0.8-2-0.8v-0.7h5.6v0.7c-1.7,0.1-1.8,0.2-1.8,0.8v7
	c0,2.3,1.4,3.2,3.5,3.2c1,0,1.8-0.4,2.4-0.9c0.7-0.7,0.9-1.3,0.9-2.7v-5.1c0-1.7-0.4-2-2.2-2.3v-0.7h4.9v0.7
	c-1.7,0.3-1.8,0.6-1.8,2.3v5.8c0,2-1.7,3.9-4.7,3.9C-209.2,456.1-211,454.5-211,452.3 M-199,452.1h0.7c1,2.2,2.2,3.1,3.8,3.1
	c1.8,0,2.5-1.2,2.5-2.3c0-1.4-0.9-1.9-3.2-2.7c-1.7-0.6-3.6-1.1-3.6-3.4c0-2.3,1.9-3.8,4.2-3.8c1.1,0,1.7,0.2,2.4,0.4l0.6-0.5h0.5
	v3.6h-0.7c-0.6-1.7-1.7-2.7-3.1-2.7c-1.2,0-2.2,0.8-2.2,2.2c0,1.3,1,1.8,3,2.4c1.7,0.6,3.5,1.2,3.5,3.5c0,1.9-1.1,4.1-4.2,4.1
	c-0.9,0-1.9-0.2-2.7-0.5l-1,0.6h-0.5V452.1L-199,452.1z M-186.7,455.1c1.7-0.1,2.1-0.2,2.1-0.8v-10.1h-0.9c-1.8,0-2.2,0.9-2.9,3.2
	l-0.6,0l0.1-3.9h10.5l0.1,3.9l-0.6,0c-0.6-2.1-1.1-3.2-2.9-3.2h-0.9v10.1c0,0.6,0.4,0.8,2.1,0.8v0.7h-6
	C-186.7,455.8-186.7,455.1-186.7,455.1z M-173.1,454.3c0,0.6,0.3,0.8,2,0.8v0.7h-5.8v-0.7c1.6-0.1,2-0.2,2-0.8v-9.3
	c0-0.6-0.4-0.8-2-0.8v-0.7h5.2c3.8,0,4.9,1.4,4.9,3c0,1.5-0.9,2.6-3.2,3.1v0.1c2.3,0.2,2.6,1.1,2.8,2.4l0.3,1.7
	c0.2,1.1,0.6,1.4,1.9,1.5v0.7c-0.1,0-0.5,0-0.6,0c-2.6,0-3.1-0.6-3.2-2.3l-0.1-1.4c-0.2-1.7-0.9-2.2-2.8-2.2h-1.3
	C-173.1,450-173.1,454.3-173.1,454.3z M-171.7,449.2c2.4,0,3-1.1,3-2.7c0-1.5-0.8-2.3-3.1-2.3h-1.3v5H-171.7z M-156.3,451.2h-4.2
	l-0.7,1.8c-0.6,1.6-0.6,1.9,1,2.1v0.7h-4.1v-0.7c1.3-0.3,1.6-1,2.3-2.5l3.8-9.4h1l3.7,10.4c0.4,1,0.7,1.3,2.1,1.5v0.7h-5.6v-0.7
	c1.6-0.1,1.9-0.5,1.6-1.4L-156.3,451.2L-156.3,451.2z M-156.6,450.4l-1.7-4.8h-0.1l-1.9,4.8H-156.6L-156.6,450.4z M-150.6,455.1
	c1.6-0.1,2-0.2,2-0.8v-9.3c0-0.6-0.4-0.8-2-0.8v-0.7h5.8v0.7c-1.6,0.1-2,0.2-2,0.8v10h2c2.5,0,3.1-0.9,3.8-3.4l0.7,0l-0.1,4.2h-10.1
	V455.1L-150.6,455.1z M-139.3,455.1c1.6-0.1,2-0.2,2-0.8v-9.3c0-0.6-0.4-0.8-2-0.8v-0.7h5.8v0.7c-1.6,0.1-2,0.2-2,0.8v9.3
	c0,0.6,0.4,0.8,2,0.8v0.7h-5.8V455.1z M-124.2,451.2h-4.2l-0.7,1.8c-0.6,1.6-0.6,1.9,1,2.1v0.7h-4.1v-0.7c1.3-0.3,1.6-1,2.3-2.5
	l3.8-9.4h1l3.7,10.4c0.4,1,0.7,1.3,2.1,1.5v0.7h-5.6v-0.7c1.6-0.1,1.9-0.5,1.6-1.4L-124.2,451.2L-124.2,451.2z M-124.5,450.4
	l-1.7-4.8h-0.1l-1.9,4.8H-124.5z M-244.9,420.3c0.5,0.5,0.7,0.6,1,1.1c0.2,0.4,0.6,0.5,0.6,0.4c0-0.2,0-0.8-0.5-1.5
	c-0.5-0.7-1.4-0.9-1.4-0.9S-245,420.1-244.9,420.3 M-246.4,419.4c-0.5-0.1-1.5-0.5-1.9-1.5c-0.1-0.2-0.1-0.4-0.2-0.4
	c0,0-0.1,0.3-0.1,0.4c0,0.3,0,0.9,0.5,1.4c0.4,0.4,0.8,0.4,1.3,0.4c0.4,0,0.7-0.1,0.7-0.1C-246.1,419.5-246.2,419.5-246.4,419.4
	 M-247.8,415.3c0,0-0.2-0.9-0.7-1.5c-0.5-0.7-1.1-0.8-1.2-0.9c-0.1-0.1-0.1,0.5,0.3,0.9c0.4,0.4,0.5,0.6,0.6,1
	C-248.6,415.2-247.8,415.4-247.8,415.3 M-246,417c-0.6-0.5-1.4-0.6-1.7-0.2c-0.3,0.4-0.1,1.1,0.5,1.6c0.6,0.5,1.4,0.6,1.7,0.2
	C-245.1,418.2-245.4,417.5-246,417 M-244.1,413c0-0.1-0.1-0.1-0.1,0c0,0.6-0.5,1.1-0.7,1.5c-0.3,0.6-0.1,1.2-0.1,1.2
	c0,0,0.5-0.3,0.8-0.7C-243.7,414.2-244,413.3-244.1,413 M-243,416.5c-0.3,0.1-0.6,0.2-0.6,0.3c0.5,0,1,0.3,1.5,0.5
	c0.6,0.2,1.2,0.2,1.2,0.1c0,0-0.2-0.2-0.6-0.5C-242,416.3-242.8,416.4-243,416.5 M-262.8,413.5c0-0.2-0.1-1-0.3-1.4
	c-0.2-0.3-0.6-0.8-1.1-0.9c-0.5-0.2-0.8-0.2-1-0.1c-0.2,0-0.1,0,0,0.1c0.7,0.4,1.1,1.3,1.4,1.9
	C-263.5,413.3-262.8,413.6-262.8,413.5 M-263.1,416c0,0.6,0.6,1,1.3,1v0h0v0c0.7,0,1.3-0.5,1.3-1c0-0.6-0.6-1-1.3-1v0h0v0
	C-262.5,415-263.1,415.4-263.1,416 M-259.8,417.4c0,0-0.5,0.7-1.9,0.8c0,0,0,0,0,0l-0.1,0l0,0l0,0h0v0h0l0,0l-0.1,0c0,0,0,0,0,0
	c-1.4-0.1-1.8-0.8-1.8-0.8c-0.3,0.1,0.3,1.6,1.8,1.6l0,0h0c0,0,0,0,0,0C-260.1,419-259.5,417.6-259.8,417.4 M-267.2,415.1
	c-0.3,0.1-0.7,0.4-1,0.5c-0.3,0.2-0.5,0.2-0.7,0.2c-0.1,0,0,0.1,0,0.1c0.4,0.1,1,0.4,2.1,0c0.5-0.2,0.9-0.5,1.1-0.5
	c0.1,0,0.2-0.1,0.1-0.2C-265.8,415.1-266.4,414.8-267.2,415.1 M-258.4,411c-0.1,0-0.5,0-1,0.1c-0.5,0.2-0.9,0.6-1.1,0.9
	c-0.2,0.4-0.3,1.2-0.3,1.4c0,0.1,0.6,0,0.8-0.4C-259.6,412.6-259.3,411.7-258.4,411C-258.3,411-258.3,411-258.4,411 M-255.4,415.7
	c-0.3-0.1-0.7-0.4-1-0.5c-0.7-0.3-1.3,0-1.6,0.2c-0.1,0.1-0.1,0.1,0,0.1c0.3,0,0.7,0.4,1.1,0.5c1.4,0.5,1.8,0.1,2.1,0
	c0.1,0,0.1-0.1,0.1-0.1C-254.9,415.8-255.1,415.8-255.4,415.7 M-278.6,415.8c0,0,0.2-0.6-0.1-1.2c-0.2-0.5-0.7-1-0.7-1.5
	c0-0.1-0.1-0.1-0.1,0c-0.1,0.3-0.4,1.2,0.2,2C-279.1,415.5-278.6,415.8-278.6,415.8 M-276,416.8c-0.3-0.4-1.1-0.3-1.7,0.2
	c-0.6,0.5-0.8,1.2-0.5,1.6c0.3,0.4,1.1,0.3,1.7-0.2C-275.9,417.9-275.6,417.2-276,416.8 M-279.8,420.3c-0.5,0.7-0.5,1.3-0.5,1.5
	c0,0.1,0.4,0,0.6-0.4c0.3-0.5,0.6-0.6,1-1.1c0.2-0.2,0.3-0.8,0.3-0.8S-279.3,419.7-279.8,420.3"/>
<path class="st0" d="M-260.8,407.4c-0.5,0-0.8,0-0.9,0c-0.1,0-0.2,0-0.3,0c-0.3,0-0.6,0-0.9,0c-3.2,0-14.1,0.3-22.8,3.8v13.9
	c1.1-0.2,2.3-0.3,3.4-0.3h0.1c2.1,0,3.9,0.5,5.7,0.9l0,0c1.5,0.4,3,0.8,4.5,0.7c1.8-0.1,3.4-0.5,4.9-0.9c1.7-0.5,3.3-0.9,5.3-0.9
	l0.1,0c2.6,0,4.5,0.5,6.2,1l0,0c1.4,0.4,2.7,0.8,4,0.7c1.8-0.1,3.2-0.5,4.7-0.9c1.6-0.5,3.2-0.9,5.2-1h0c1.4,0,2.6,0.2,3.7,0.4
	v-13.9C-246.7,407.7-257.6,407.4-260.8,407.4 M-272.9,421.9c-0.4-0.2-0.6-0.1-1.4-0.2c-1.5-0.1-2.1-0.9-2.1-1.1s-0.2-0.2-0.4,0.1
	c-0.1,0.3-0.1,1.1-0.8,1.6c-1,0.8-2.1,0.4-2.6,0.5c-0.3,0-0.5,0.2-0.7,0.1c-0.3-0.3,0.1-0.6,0.1-1c0-1,0.4-1.9,1.2-2.4
	c0.4-0.3,0.3-0.5-0.2-0.3c-0.4,0.2-1.4,0.3-2,0c-1.1-0.6-1-1-1.5-1.2c-0.4-0.2-0.3-0.6,0-0.6c0.5-0.1,1-1,1.9-1.2
	c0.9-0.2,1.3,0.3,1.7,0.4c0.1,0.1,0.3-0.1,0.3-0.1c0-0.2-0.2-0.3-0.2-0.4c-1.1-1.4-0.2-2.7-0.2-3.4c0-0.6,0.3-0.6,0.6-0.4
	c0.3,0.3,0.9,0.4,1.4,0.7c0.6,0.3,1.1,1.3,1,2c0,0.2,0,0.6,0.2,0.5c0.3-0.1,0.2-0.6,0.4-1.1c0.5-1.5,2.1-1.4,2.5-1.8
	c0.2-0.2,0.4-0.3,0.6-0.1c0.2,0.1,0,0.5,0.2,1c0.7,1.8-0.4,3.6-1.4,4.1c-0.3,0.1-0.3,0.3,0,0.4c0.9,0.3,1.5,1.2,1.6,1.7
	c0.4,1.4,0,1.6,0.4,2C-272.1,421.8-272.5,422.1-272.9,421.9 M-266.9,423.3c-1.4-1.3-3.8-2.5-4.1-2.5c-0.2,0.1-0.7,0.1-0.7,0
	c0.1-1-0.2-2.4-1.2-3.2c-0.2-0.1-0.1-0.3,0-0.4c0.4-0.3,0.5-0.5,0.5-0.5c0.4,0,1,0.6,1.4,1.6c0.3,0.6,0.3,0.9,1,1.4
	c0.7,0.6,2.1,1.2,3.2,2.9C-266.5,423.2-266.8,423.4-266.9,423.3 M-258.7,418.5c-0.5-0.1-0.6,0-0.6,0.1c-0.1,0.3,0.8,1.3-0.5,2.8
	c-0.6,0.7-1.3,1-1.6,1.5c-0.1,0.3-0.1,0.4-0.4,0.4v0c0,0,0,0,0,0h0c0,0,0,0,0,0v0c-0.2,0-0.2-0.2-0.4-0.4c-0.2-0.4-0.9-0.7-1.6-1.5
	c-1.3-1.5-0.4-2.5-0.5-2.8c0-0.1-0.1-0.2-0.6-0.1c-0.9,0.2-2.3,0.3-3.3-0.8c-0.7-0.8-0.6-1.2-1.2-1.4c-0.5-0.2-0.5-0.6,0-0.7
	c0.4-0.1,0.5-0.3,0.7-0.5c0.5-0.4,1.5-1.2,2.7-0.7c0.3,0.1,0.6,0.2,0.7,0.3c0.2,0.1,0.3-0.3-0.2-0.7c-1.1-1-1.2-2-1.1-3.1
	c0.1-0.6-0.2-0.8,0.1-1c0.3-0.1,0.4,0.2,1.3,0.3c1.8,0.1,2.8,1,3.1,2.8c0.1,0.4,0,0.6,0.1,0.6c0,0,0,0,0.1,0v0l0,0h0v0
	c0,0,0,0,0.1,0c0.1-0.1,0.1-0.3,0.1-0.6c0.3-1.7,1.3-2.7,3.1-2.8c0.9,0,1-0.4,1.3-0.3c0.3,0.1,0.1,0.4,0.1,1c0.1,1.1,0,2-1.1,3.1
	c-0.4,0.4-0.4,0.8-0.2,0.7c0.1,0,0.4-0.2,0.7-0.3c1.2-0.4,2.2,0.4,2.7,0.7c0.2,0.2,0.4,0.4,0.7,0.5c0.5,0.1,0.5,0.6,0,0.7
	c-0.5,0.2-0.5,0.6-1.2,1.4C-256.4,418.8-257.8,418.7-258.7,418.5 M-251.9,420.8c0,0.1-0.4,0.1-0.7,0c-0.3-0.1-2.8,1.1-4.1,2.5
	c-0.1,0.1-0.5-0.1-0.1-0.6c1.1-1.7,2.5-2.3,3.2-2.9c0.7-0.6,0.7-0.8,1-1.4c0.4-1,1-1.5,1.4-1.6c0.1,0,0.1,0.3,0.5,0.5
	c0.2,0.1,0.3,0.2,0,0.4C-251.7,418.4-251.9,419.8-251.9,420.8 M-240.3,417.8c-0.5,0.2-0.4,0.7-1.5,1.2c-0.6,0.3-1.6,0.2-2,0
	c-0.5-0.2-0.6,0.1-0.2,0.3c0.8,0.5,1.2,1.4,1.2,2.4c0,0.4,0.3,0.8,0.1,1c-0.1,0.1-0.3,0-0.7-0.1c-0.5-0.1-1.6,0.2-2.6-0.5
	c-0.6-0.5-0.7-1.3-0.8-1.6c-0.2-0.4-0.3-0.3-0.3-0.1c-0.1,0.2-0.7,1.1-2.1,1.1c-0.9,0-1,0-1.4,0.2c-0.4,0.2-0.8-0.1-0.5-0.5
	c0.4-0.4,0-0.6,0.4-2c0.1-0.5,0.7-1.4,1.6-1.7c0.3-0.1,0.3-0.3,0-0.4c-1-0.5-2.1-2.2-1.4-4.1c0.2-0.5,0-0.9,0.2-1
	c0.2-0.1,0.4,0,0.6,0.1c0.4,0.4,2,0.4,2.5,1.8c0.2,0.5,0.1,1,0.4,1.1c0.2,0,0.2-0.3,0.2-0.5c0-0.7,0.5-1.7,1-2
	c0.5-0.3,1-0.4,1.4-0.7c0.3-0.2,0.6-0.3,0.6,0.4c0,0.6,0.9,1.9-0.2,3.4c-0.1,0.1-0.3,0.2-0.2,0.4c0,0,0.1,0.2,0.3,0.1
	c0.3-0.1,0.7-0.6,1.7-0.4c0.9,0.2,1.5,1.1,1.9,1.2C-240,417.2-239.9,417.6-240.3,417.8"/>
<path class="st0" d="M-280.5,416.5c-0.3-0.1-1.1-0.1-1.6,0.3c-0.4,0.3-0.6,0.5-0.6,0.5c0,0.2,0.6,0.1,1.2-0.1
	c0.6-0.2,1.1-0.5,1.5-0.5C-280,416.7-280.3,416.6-280.5,416.5 M-273.9,412.9c-0.2,0.1-0.8,0.2-1.2,0.9c-0.5,0.7-0.7,1.5-0.7,1.5
	c0,0.1,0.8-0.1,1-0.6c0.2-0.4,0.2-0.5,0.6-1C-273.8,413.3-273.8,412.8-273.9,412.9 M-275.1,417.5c0,0-0.1,0.2-0.2,0.4
	c-0.4,1-1.4,1.4-1.9,1.5c-0.2,0.1-0.3,0.1-0.3,0.1c0,0,0.3,0.1,0.7,0.1c0.5,0,0.9,0,1.3-0.4c0.5-0.5,0.5-1,0.5-1.4
	C-274.9,417.8-275,417.5-275.1,417.5"/>
<path class="st0" d="M-261.9,404.9c-1.1,0-15.1-0.4-26,4.4l-0.4,0.2v36.6c0,4.8,0.8,10,6.5,16c4.5,4.7,14.4,10.1,19.7,12.4l0.3,0.1
	l0.3-0.1c5.2-2.3,15.1-7.7,19.6-12.4c5.7-6,6.5-11.2,6.5-16v-36.6l-0.4-0.2C-246.8,404.6-260.7,404.9-261.9,404.9z M-236.9,446.1
	c0,4.5-0.7,9.4-6,15c-4.3,4.5-13.7,9.6-18.9,12c-9.5-4.2-16.6-9.5-18.9-12c-5.3-5.6-6-10.5-6-15v-35.6c10.3-4.3,23.6-4.1,24.8-4.1
	c0,0,0.1,0,0.1,0c0,0,0.1,0,0.1,0c1.2,0,14.6-0.2,24.8,4.1L-236.9,446.1L-236.9,446.1z"/>
<path class="st0" d="M-260.6,403.9c4.4,0,15.8,0.4,25.1,4.5l1.1,0.5v37.3c0,5-0.8,10.4-6.7,16.7c-4.6,4.8-14.7,10.3-20,12.6
	l-0.7,0.3l-0.7-0.3c-5.3-2.3-15.4-7.8-20-12.6c-5.9-6.2-6.7-11.7-6.7-16.7v-37.3l1.1-0.5c9.3-4.1,20.6-4.5,25.1-4.5
	c0.7,0,1.1,0,1.3,0C-261.7,403.9-261.2,403.9-260.6,403.9 M-260.6,403.2c-0.7,0-1.1,0-1.3,0c-0.2,0-0.6,0-1.3,0
	c-4.5,0-16,0.4-25.4,4.6l-1,0.5l-0.4,0.2v37.7c0,5.1,0.8,10.8,6.9,17.2c4.7,4.9,14.9,10.5,20.2,12.8l0.7,0.3l0.3,0.1l0.3-0.1
	l0.7-0.3c5.3-2.3,15.5-7.9,20.2-12.8c6.1-6.4,6.9-12.1,6.9-17.2v-37.7l-0.4-0.2l-1-0.5C-244.6,403.7-256.1,403.2-260.6,403.2"/>
<path class="st0" d="M-246.4,433.1v20.2l0.6,0.7v-20.2l0.6,0.8l0,20.2h-13.4c-0.6,0.1-0.9,0.5-1.1,0.6c0,0,0,0-0.1,0
	c-0.4,0.3-1.1,0.6-2.1,0.6c-1.2,0-2-0.4-2.4-0.7c-0.2-0.2-0.5-0.5-1.2-0.5h-0.2c0,0-0.1,0-0.1,0h-12.5l0-20.4l0.6-0.7V454l0.6-0.7
	v-20.1l0.1-0.1h-2.1v22.8h13.1c0.3,0,0.6,0,1,0.3c0.5,0.4,1.5,1.2,3.2,1.1c1.4-0.1,2.3-0.6,2.7-1c0.5-0.4,0.9-0.4,1.2-0.4h13.4
	v-22.8L-246.4,433.1L-246.4,433.1z M-242.5,449.8h-1.2v1h2.2l-1,0.8h0v1.1h1.8v-4h-1.8V449.8z M-242.5,434.5v1.1h-1.2v1h2.2l-1,0.8
	h0v1.1h1.8v-4H-242.5z M-247,432.3l-0.6-0.7v20.2l0.6,0.7V432.3z M-242.5,442.7h-1.2v1h2.2l-1,0.8h0v1.1h1.8v-4h-1.8V442.7z
	 M-275.7,431.5l-0.6,0.7v20.2l0.6-0.7V431.5L-275.7,431.5z M-269.1,451.3c3.9-1.2,5.6-0.2,6.6,0.5v-1.5c-0.4-0.4-1.1-1-2.1-1.2l0,0
	c-0.2,0-0.4-0.1-0.6-0.1c0,0,0,0,0,0c0.2,0,0.4-0.1,0.6-0.1c0.3,0,0.7,0.1,0.8,0.1c0.6,0.1,1,0.3,1.3,0.5v-1.3
	c-0.6-0.6-1.7-1.1-2.1-1.2l0,0c-0.2,0-0.4-0.1-0.6-0.1c0,0,0,0,0,0c0.2,0,0.4-0.1,0.6-0.1c0.3,0,0.6,0,0.8,0.1
	c0.6,0.1,1,0.3,1.3,0.5v-1.2c-0.6-0.6-1.3-1.1-2.1-1.3l0,0c-0.2-0.1-0.4-0.1-0.6-0.1c0,0,0,0,0,0c0.2,0,0.3,0,0.5,0
	c0.3,0,0.7,0.1,0.9,0.1c0.6,0.2,1,0.3,1.3,0.5v-1.2c-0.5-0.6-1.2-1-2.1-1.3l0,0c-0.2-0.1-0.4-0.1-0.6-0.1c0,0,0,0,0,0
	c0.1,0,0.3,0,0.5,0c0.4,0,0.8,0.1,0.9,0.1c0.6,0.2,1,0.3,1.3,0.5v-1.2c-0.7-0.8-1.7-1.2-2.1-1.3l0,0c-0.2-0.1-0.4-0.1-0.5-0.1
	c0,0,0,0-0.1,0c0,0,0,0,0,0c0.1,0,0.3,0,0.5,0c0.4,0,0.8,0.1,0.9,0.1c0.6,0.2,1,0.3,1.3,0.5V440c-0.3-0.3-0.9-0.9-2-1.3l-0.1,0
	c-0.3-0.1-0.5-0.1-0.6-0.1c0,0,0,0,0,0c0.1,0,0.3,0,0.4,0c0.4,0,0.9,0.1,1,0.1c0.6,0.2,1,0.4,1.3,0.6V438c-0.3-0.3-0.9-0.9-2-1.3
	l-0.1,0c-0.2-0.1-0.4-0.1-0.6-0.1c0,0,0,0,0,0c0.1,0,0.2,0,0.4,0c0.4,0,0.9,0.1,1,0.2c0.6,0.2,1,0.4,1.3,0.6v-1.2
	c-0.3-0.4-1-1-2.1-1.4l0,0c-0.3-0.1-0.5-0.1-0.6-0.1c0,0,0,0,0,0c0,0,0,0,0,0c0.1,0,0.2,0,0.4,0c0.4,0,0.9,0.1,1.1,0.2
	c0.6,0.2,1,0.4,1.3,0.6v-1.2c-0.3-0.4-1-1-2.1-1.4l0,0c-0.2-0.1-0.4-0.1-0.6-0.1c0,0,0,0,0,0c0.1,0,0.2,0,0.3,0
	c0.5,0,0.9,0.1,1.1,0.2c0.6,0.2,1,0.4,1.3,0.6v-1.3c-0.4-0.5-1.6-1.4-3.9-1.2c-2.9,0.3-6.1,1.9-8.6,0.7v20.1
	C-274.5,451.7-272.1,452.2-269.1,451.3z M-274,433.1L-274,433.1L-274,433.1c0.3,0.1,0.8,0.2,1.7,0.2c0.4,0,0.8,0,1.3-0.1
	c0.1,0,0.5,0,0.8-0.1c0,0,0,0,0,0c0,0-0.5,0.6-2.1,0.6l-0.1,0c-0.1,0-0.1,0-0.2,0l-0.1,0c-0.4,0-0.5,0-0.8-0.1
	C-273.9,433.5-274,433.1-274,433.1C-274,433.1-274,433.1-274,433.1z M-274,435.1L-274,435.1L-274,435.1c0.3,0.1,0.8,0.2,1.7,0.2
	c0.4,0,0.8,0,1.3-0.1c0.1,0,0.5,0,0.8-0.1c0,0,0,0,0,0c0,0-0.5,0.6-2.1,0.6c0,0,0,0-0.1,0c-0.1,0-0.1,0-0.2,0l-0.1,0
	c-0.4,0-0.5,0-0.8-0.1C-273.9,435.6-274,435.2-274,435.1C-274,435.1-274,435.1-274,435.1z M-274,437.2L-274,437.2L-274,437.2
	c0.3,0.1,0.8,0.2,1.7,0.2c0.4,0,0.8,0,1.3-0.1c0.1,0,0.5,0,0.8-0.1c0,0,0,0,0,0c0,0-0.5,0.6-2.1,0.6l-0.1,0c-0.1,0-0.1,0-0.2,0
	l-0.1,0c-0.4,0-0.5,0-0.8-0.1C-273.9,437.7-274,437.2-274,437.2C-274,437.2-274,437.2-274,437.2z M-274,439.3L-274,439.3L-274,439.3
	c0.3,0.1,0.8,0.2,1.7,0.2c0.4,0,0.8,0,1.3-0.1c0.3,0,0.6-0.1,0.8-0.1c0,0,0,0,0,0c0,0-0.5,0.6-2.1,0.6c0,0,0,0-0.1,0
	c-0.1,0-0.1,0-0.2,0l-0.1,0c-0.3,0-0.5,0-0.8-0.1C-273.9,439.8-274,439.3-274,439.3C-274,439.3-274,439.3-274,439.3L-274,439.3z
	 M-274,441.4L-274,441.4L-274,441.4c0.3,0.1,0.8,0.2,1.7,0.2c0.4,0,0.9,0,1.3-0.1c0.1,0,0.5,0,0.8-0.1c0,0,0,0,0,0
	c0,0-0.5,0.6-2.1,0.6h-0.1c-0.1,0-0.1,0-0.2,0l-0.1,0c-0.4,0-0.5,0-0.8-0.1C-273.9,441.8-274,441.4-274,441.4
	C-274,441.4-274,441.4-274,441.4z M-274,443.4L-274,443.4L-274,443.4c0.3,0.1,0.8,0.2,1.7,0.2c0.4,0,0.8,0,1.3-0.1
	c0.1,0,0.5,0,0.8-0.1c0,0,0,0,0,0c0,0-0.5,0.6-2.1,0.6h-0.1c-0.1,0-0.1,0-0.2,0l-0.1,0c-0.3,0-0.5,0-0.8-0.1
	C-273.9,443.9-274,443.5-274,443.4C-274,443.5-274,443.5-274,443.4z M-274,445.5L-274,445.5L-274,445.5c0.3,0.1,0.8,0.2,1.7,0.2
	c0.4,0,0.8,0,1.3-0.1c0.1,0,0.5,0,0.8-0.1c0,0,0,0,0,0c0,0-0.5,0.6-2.1,0.6h-0.1c-0.1,0-0.1,0-0.2,0l-0.1,0c-0.3,0-0.5,0-0.8-0.1
	C-273.9,446-274,445.6-274,445.5C-274,445.5-274,445.5-274,445.5z M-274,447.6L-274,447.6L-274,447.6c0.3,0.1,0.8,0.2,1.7,0.2
	c0.4,0,0.8,0,1.3-0.1c0.1,0,0.5,0,0.8-0.1c0,0,0,0,0,0c0,0-0.5,0.6-2.1,0.6h-0.1c-0.1,0-0.1,0-0.2,0l-0.1,0c-0.4,0-0.5,0-0.8-0.1
	C-273.9,448.1-274,447.6-274,447.6C-274,447.6-274,447.6-274,447.6z M-274,449.7C-274,449.7-274,449.7-274,449.7L-274,449.7
	L-274,449.7c0.3,0.1,0.8,0.2,1.7,0.2c0.4,0,0.8,0,1.3-0.1c0.1,0,0.5,0,0.8-0.1c0,0,0,0,0,0c0,0-0.5,0.6-2.1,0.6l-0.1,0
	c-0.1,0-0.1,0-0.2,0l-0.1,0c-0.4,0-0.5,0-0.8-0.1C-273.9,450.2-274,449.7-274,449.7z M-280.6,448.8c-0.1-0.5-0.6-0.9-1.1-0.9
	c-0.3,0-0.5,0.1-0.7,0.3c-0.3,0.4,0,1.1,0.1,1.3c-0.2-0.1-0.4-0.1-0.6-0.1c-0.4,0-0.9,0.2-0.9,1c0,0.9,0.6,1,0.9,1
	c0.2,0,0.4,0,0.6-0.1c-0.1,0.2-0.4,0.9-0.1,1.3c0.2,0.2,0.4,0.3,0.7,0.3c0.5,0,1-0.4,1.1-0.9c0-0.2,0-0.6,0-0.8h1.1v-1.7h-1.1
	C-280.6,449.3-280.6,449.1-280.6,448.8L-280.6,448.8z M-281.7,451.2c-0.4,0-0.8-0.3-0.8-0.7c0-0.1,0-0.2,0.1-0.3
	c0,0.3,0.3,0.5,0.6,0.5c0.3,0,0.6-0.2,0.6-0.5c0-0.1,0-0.2-0.1-0.3c0.3,0.1,0.4,0.4,0.5,0.7C-280.9,450.9-281.2,451.2-281.7,451.2
	L-281.7,451.2z M-280.6,441.7c-0.1-0.5-0.6-0.9-1.1-0.9c-0.3,0-0.5,0.1-0.7,0.3c-0.3,0.4,0,1.1,0.1,1.3c-0.2-0.1-0.4-0.1-0.6-0.1
	c-0.3,0-0.9,0.1-0.9,1c0,0.9,0.6,1,0.9,1c0.2,0,0.4,0,0.6-0.1c-0.1,0.2-0.4,0.9-0.1,1.3c0.2,0.2,0.4,0.3,0.7,0.3
	c0.5,0,1-0.4,1.1-0.9c0-0.2,0-0.6,0-0.8h1.1v-1.7h-1.1C-280.6,442.3-280.6,442-280.6,441.7L-280.6,441.7z M-281.7,444.1
	c-0.4,0-0.8-0.3-0.8-0.7c0-0.1,0-0.2,0.1-0.3c0,0.3,0.3,0.5,0.6,0.5c0.3,0,0.6-0.2,0.6-0.5c0,0,0,0,0,0c0-0.1,0-0.2-0.1-0.3
	c0.3,0.1,0.4,0.4,0.5,0.7C-280.9,443.8-281.2,444.2-281.7,444.1C-281.7,444.1-281.7,444.1-281.7,444.1L-281.7,444.1z M-254.2,451.3
	c3,1,5.5,0.5,5.9,0.1v-20.1c-2.4,1.2-5.7-0.4-8.6-0.7c-2.3-0.2-3.6,0.8-4.1,1.3v20.1C-260.2,451.3-258.4,449.9-254.2,451.3
	L-254.2,451.3z M-258.2,432.2L-258.2,432.2L-258.2,432.2c0.5-0.1,1-0.1,1.4-0.1c0.8,0.1,1.8,0.3,2.7,0.7c0.7,0.3,1.4,0.5,2,0.6l0,0
	c-0.8,0-1.5-0.2-2.2-0.4c-1.1-0.3-2.1-0.5-2.9-0.5c-0.3,0-0.7,0-1,0.1c0,0-0.1,0-0.1,0c-0.4,0-0.5-0.4-0.5-0.4
	C-258.6,432.3-258.4,432.3-258.2,432.2z M-258.2,434.3L-258.2,434.3L-258.2,434.3c0.5-0.1,1-0.1,1.4-0.1c0.8,0.1,1.8,0.3,2.7,0.7
	c0.7,0.3,1.4,0.5,2,0.6l0,0c-0.8-0.1-1.6-0.2-2.2-0.4c-1.1-0.3-2.1-0.5-2.9-0.5c-0.3,0-0.7,0-1,0.1c0,0-0.1,0-0.1,0
	c-0.4,0-0.5-0.4-0.5-0.4C-258.7,434.4-258.4,434.3-258.2,434.3z M-258.2,436.3C-258.2,436.3-258.2,436.3-258.2,436.3L-258.2,436.3
	c0.5-0.1,1-0.1,1.4-0.1c0.8,0.1,1.8,0.3,2.7,0.7c0.7,0.3,1.4,0.5,2,0.6l0,0c-0.6,0-1.4-0.1-2.2-0.4c-1.1-0.3-2.1-0.5-2.9-0.5
	c-0.3,0-0.7,0-1,0.1c0,0-0.1,0-0.1,0c-0.4,0-0.5-0.4-0.5-0.4C-258.6,436.4-258.4,436.4-258.2,436.3z M-258.2,438.4
	c0.3-0.1,0.7-0.1,1-0.1c0.1,0,0.3,0,0.4,0c0.8,0.1,1.8,0.3,2.7,0.7c0.7,0.3,1.4,0.5,2,0.6l0,0c-0.8,0-1.5-0.2-2.2-0.4
	c-1.1-0.3-2.1-0.5-2.9-0.5c-0.3,0-0.7,0-1,0.1c0,0-0.1,0-0.1,0c-0.4,0-0.5-0.4-0.5-0.4C-258.7,438.5-258.4,438.4-258.2,438.4z
	 M-258.2,440.4c0.5-0.1,0.9-0.1,1.4-0.1c0.8,0.1,1.8,0.3,2.7,0.7c0.7,0.3,1.4,0.5,2,0.6l0,0c-0.4,0-1.4-0.1-2.2-0.4
	c-1.1-0.3-2.1-0.5-2.9-0.5c-0.3,0-0.7,0-1,0.1c0,0-0.1,0-0.1,0c-0.4,0-0.5-0.4-0.5-0.4C-258.7,440.5-258.4,440.5-258.2,440.4z
	 M-258.2,442.5c0.5-0.1,0.9-0.1,1.4-0.1c0.8,0.1,1.8,0.3,2.7,0.7c0.7,0.3,1.4,0.5,2,0.6l0,0c-0.8-0.1-1.6-0.2-2.2-0.4
	c-1.1-0.3-2.1-0.5-2.9-0.5c-0.3,0-0.7,0-1,0.1c0,0-0.1,0-0.1,0c-0.4,0-0.5-0.4-0.5-0.4C-258.7,442.6-258.4,442.5-258.2,442.5z
	 M-258.2,444.5c0.5-0.1,0.9-0.1,1.4-0.1c0.8,0.1,1.8,0.3,2.7,0.7c0.7,0.3,1.4,0.5,2,0.6l0,0c-0.5,0-1.4-0.1-2.2-0.4
	c-1.1-0.3-2.1-0.5-2.9-0.5c-0.3,0-0.7,0-1,0.1c0,0-0.1,0-0.1,0c-0.4,0-0.5-0.4-0.5-0.4C-258.7,444.6-258.4,444.6-258.2,444.5z
	 M-258.2,446.6c0.5-0.1,0.9-0.1,1.4-0.1c0.8,0.1,1.8,0.3,2.7,0.7c0.7,0.3,1.4,0.5,2,0.6l0,0c-0.8-0.1-1.6-0.2-2.2-0.4
	c-1.1-0.3-2.1-0.5-2.9-0.5c-0.3,0-0.7,0-1,0.1c0,0-0.1,0-0.1,0c-0.4,0-0.5-0.4-0.5-0.4C-258.6,446.7-258.4,446.6-258.2,446.6z
	 M-258.3,449.2c-0.4,0-0.5-0.4-0.5-0.4c0.2-0.1,0.4-0.1,0.6-0.2c0.3-0.1,0.7-0.1,1-0.1c0.1,0,0.3,0,0.4,0c0.8,0.1,1.8,0.3,2.7,0.7
	c0.7,0.3,1.4,0.5,2,0.6l0,0c-0.4,0-1.3-0.1-2.2-0.4c-1.1-0.3-2.1-0.5-2.9-0.5c-0.3,0-0.7,0-1,0.1
	C-258.3,449.2-258.3,449.2-258.3,449.2z M-280.6,434.7c-0.1-0.5-0.6-0.9-1.1-0.9c-0.3,0-0.5,0.1-0.7,0.3c-0.3,0.4,0,1.1,0.1,1.3
	c-0.2-0.1-0.4-0.1-0.6-0.1c-0.3,0-0.9,0.1-0.9,1c0,0.9,0.6,1,0.9,1c0.2,0,0.4,0,0.6-0.1c-0.1,0.2-0.4,0.9-0.1,1.3
	c0.2,0.2,0.4,0.3,0.7,0.3c0.5,0,1-0.4,1.1-0.9c0-0.2,0-0.6,0-0.8h1.1v-1.7h-1.1C-280.6,435.2-280.6,434.9-280.6,434.7z
	 M-281.7,437.1c-0.4,0-0.8-0.3-0.8-0.7c0-0.1,0-0.2,0.1-0.3c0,0.3,0.3,0.5,0.6,0.5c0.3,0,0.6-0.2,0.6-0.5c0,0,0,0,0,0
	c0-0.1,0-0.2-0.1-0.3c0.3,0.1,0.4,0.4,0.5,0.7C-280.9,436.8-281.2,437.1-281.7,437.1C-281.7,437.1-281.7,437.1-281.7,437.1
	L-281.7,437.1z"/>
</svg>
